<svg width="711" height="528" viewBox="0 0 711 528" fill="none" xmlns="http://www.w3.org/2000/svg">
<path d="M3.99999 224C20 99.2 36 91.9999 84 40C120.923 1.14441e-05 198.8 -2.80007 330 1.99993C494 7.99993 674 114 702 202C730 290 692.514 411.709 518 482C374 540 150 554 55.9999 454L55.8085 453.703C30.4524 414.335 -11.9598 348.486 3.99999 224Z" fill="#72D7F6" fill-opacity="0.23"/>
<path d="M585.112 319.782L572.113 318.652L563.352 349.736L583.981 369.235L593.307 367.822L595.567 366.126L585.112 319.782Z" fill="black"/>
<path d="M200.795 461.358C179.544 464.975 162.551 441.765 156.711 429.708L250.53 425.187C250.53 426.694 249.286 431.969 244.313 441.011C238.096 452.315 227.358 456.836 200.795 461.358Z" fill="black"/>
<path d="M470.947 308.196L438.167 303.11L427.429 354.54L448.905 359.062C458.136 369.612 479.198 387.772 489.598 376.017C499.997 364.261 481.497 325.905 470.947 308.196Z" fill="black"/>
<path d="M405.952 453.527C398.524 451.81 382.134 425.384 374.868 412.385C378.232 400.102 387.947 382.334 399.897 409.523C411.846 436.712 433.403 450.188 442.688 453.527C436.229 457.104 415.237 455.673 405.952 453.527Z" fill="black"/>
<path d="M459.361 450.619C507.061 404.501 468.121 325.999 433.646 333.064L417.256 337.585L404.257 421.796C407.271 428.201 415.56 442.933 424.603 450.619C435.906 460.227 449.47 454.01 459.361 450.619Z" fill="#424242"/>
<path d="M451.731 428.295C484.737 409.531 461.621 357.649 443.253 359.062L434.493 360.757C428.842 369.235 419.064 392.802 426.298 411.34C433.532 429.878 446.268 430.367 451.731 428.295Z" fill="#999999"/>
<path d="M538.767 411.34C536.281 408.401 531.514 385.248 529.442 374.039L571.547 367.257C576.351 381.386 585.281 409.984 582.568 411.34C579.855 412.696 553.745 413.601 541.028 413.883C541.311 414.26 541.254 414.279 538.767 411.34Z" fill="black"/>
<path d="M583.416 411.34C576.86 411.34 572.207 382.987 570.417 368.67V332.216C571.453 330.897 574.204 329.051 576.917 332.216C580.308 336.172 586.105 342.943 588.785 370.083C591.046 392.972 586.619 406.442 583.416 411.34Z" fill="#494949"/>
<path d="M584.264 392.689C588.107 373.021 581.909 355.671 578.329 349.454C576.634 349.454 576.916 349.454 576.351 354.54C575.786 359.627 576.916 372.343 579.177 383.364C581.438 394.385 583.416 394.385 584.264 392.689Z" fill="#9E9E9E"/>
<path d="M102.455 89.757C96.3508 93.6002 93.6945 101.72 93.1293 105.299C91.5468 110.414 90.586 122.878 90.3034 128.471L89.1731 129.602V135.819H92.5641L85.7821 249.418L82.6736 251.961V268.634L84.3691 342.954H82.1084L79 344.65L81.2607 372.343L86.9124 373.473V388.45L82.1084 393.82V419.535H86.9124V421.796L370.064 411.057L389.845 407.384L397.192 423.209L438.732 413.883C437.602 398.529 435.341 364.939 435.341 353.41C435.341 338.998 438.732 326.282 441.84 318.934C444.327 313.057 446.833 311.964 447.775 312.152L459.361 313C471.342 318.878 478.106 362.17 479.99 383.081L572.678 370.082C570.417 324.303 574.373 323.173 574.939 322.325C575.504 321.478 576.634 321.195 580.59 322.325C583.755 323.23 590.01 353.221 592.741 368.104H599.523L601.784 381.668L612.522 378.277L611.957 374.039L613.37 364.996L621 360.474C614.971 317.616 602.745 230.937 602.067 227.094C601.389 223.251 596.886 218.334 594.72 216.356L348.587 56.9771C346.703 55.8467 341.522 52.6252 335.871 48.7821C328.806 43.9781 320.046 42 314.394 42C308.742 42 269.463 44.5433 257.594 45.9562C248.099 47.0865 203.715 56.7887 182.709 61.4984C166.79 66.3024 132.748 76.7016 123.931 79.8665C112.91 83.8227 110.084 84.9531 102.455 89.757Z" fill="url(#paint0_linear)"/>
<path d="M129.583 88.3441V97.6694L130.148 105.017C129.96 107.748 131.561 113.325 139.473 113.777C149.364 114.342 283.31 86.6486 288.114 84.6705C291.957 83.088 294.425 76.0987 295.178 72.8019C295.272 69.0341 295.065 60.142 293.483 54.7164C291.505 47.9343 288.396 48.2169 280.201 48.2169C252.79 47.0865 147.668 74.78 138.626 77.8884C131.391 80.3752 129.583 85.895 129.583 88.3441Z" fill="black"/>
<path d="M133.822 105.017L132.691 90.6048C132.691 83.8228 137.213 82.1345 141.169 80.7143C174.231 68.8457 244.595 56.4119 268.333 52.4557C287.322 49.2908 292.07 55.0932 292.07 58.39C292.258 61.5927 292.522 69.4109 292.07 75.0626C291.505 82.1273 283.875 82.7715 280.201 84.3879C277.658 85.507 148.234 109.821 141.169 110.668C135.517 111.347 133.916 107.183 133.822 105.017Z" fill="#550CEF"/>
<path d="M352.826 370.93L88.8905 388.451H85.7821C83.2953 388.451 82.2969 391.465 82.1085 392.972V418.122C82.1085 419.705 85.6879 419.535 87.4776 419.252L192.882 413.036C241.675 410.775 340.053 406.253 343.218 406.253C346.383 406.253 361.492 405.5 368.651 405.123C368.462 398.624 367.973 384.042 367.52 377.712C367.068 371.382 357.536 370.553 352.826 370.93Z" fill="#088F87"/>
<path d="M85.4992 426.882L88.8903 425.186C88.8903 425.752 89.512 426.882 91.9989 426.882C92.3893 426.882 96.3542 426.735 103.02 426.477C105.186 424.445 109.632 419.817 110.084 417.557L326.828 406.818C327.581 410.353 329.993 417.386 333.61 417.244C336.785 417.119 339.007 417.032 340.109 416.991C355.369 416.426 355.652 414.448 360.456 413.6C365.26 412.753 364.977 418.404 363.564 420.383C362.434 421.965 356.876 422.926 354.239 423.208C268.521 426.599 96.0682 433.438 91.9989 433.664C86.9124 433.947 85.4992 432.534 84.6515 430.556C83.9733 428.973 84.9341 427.447 85.4992 426.882Z" fill="#808080"/>
<path d="M103.02 426.477C96.3542 426.735 92.3893 426.882 91.9989 426.882C89.512 426.882 88.8903 425.752 88.8903 425.186L85.4992 426.882C84.9341 427.447 83.9733 428.973 84.6515 430.556C85.4992 432.534 86.9124 433.947 91.9989 433.664C96.0682 433.438 268.521 426.599 354.239 423.208C356.876 422.926 362.434 421.965 363.564 420.383C364.977 418.404 365.26 412.753 360.456 413.6C355.652 414.448 355.369 416.426 340.109 416.991C339.007 417.032 336.785 417.119 333.61 417.244M103.02 426.477C105.186 424.445 109.632 419.817 110.084 417.557L326.828 406.818C327.581 410.353 329.993 417.386 333.61 417.244M103.02 426.477C145.595 424.826 298.356 418.637 333.61 417.244" stroke="#AFAFAF"/>
<path d="M81.8258 268.069V251.396C84.0865 250.04 87.8543 249.512 89.4556 249.418C165.848 240.281 322.363 221.442 337.284 219.181C352.204 216.921 365.354 217.486 370.064 218.051L385.041 222.007C385.7 227.47 386.793 238.284 385.888 237.832C384.758 237.267 371.759 234.158 366.955 233.593C363.112 233.141 340.863 235.289 330.219 236.419C250.341 245.839 89.7947 264.791 86.6298 265.243C83.4648 265.695 82.1084 267.315 81.8258 268.069Z" fill="#4BBF22"/>
<path d="M91.7164 379.125V346.628V334.194L151.342 329.673V375.734L91.7164 379.125Z" fill="#929292"/>
<path d="M280.766 365.844L279.071 318.934L350.283 311.87L352.826 361.887L280.766 365.844Z" fill="#929292"/>
<path d="M286.136 360.192L284.157 324.021V321.195L345.479 316.956L347.457 357.366L286.136 360.192Z" fill="#505050"/>
<path d="M145.69 335.607L96.2377 339.846V374.886L147.386 370.648L145.69 335.607Z" fill="#505050"/>
<path d="M103.585 366.126C95.2207 358.892 99.5348 348.606 102.737 344.367C106.694 340.694 114.888 338.998 120.54 345.497C125.062 350.697 122.424 359.156 120.54 362.735C118.374 366.88 111.95 373.36 103.585 366.126Z" fill="black"/>
<path d="M129.866 364.431C119.466 351.319 127.982 342.201 133.539 339.281C139.643 335.211 144.937 340.976 146.821 344.367V362.735C146.256 363.866 144.447 366.296 141.734 366.974C134.387 367.822 134.669 367.257 129.866 364.431Z" fill="black"/>
<path d="M287.549 339.563C288.227 328.712 297.062 324.68 301.395 324.021C304.916 322.891 308.891 325.245 310.438 326.564C313.358 328.825 318.576 335.607 316.09 344.65C313.603 353.692 305.257 355.765 301.395 355.67C296.497 354.823 286.87 350.414 287.549 339.563Z" fill="black"/>
<path d="M328.241 351.997C310.834 337.981 323.437 326.376 331.915 322.325C337.34 320.291 343.783 325.434 346.326 328.26L347.174 344.65C347.645 344.65 347.626 345.667 343.783 349.736C338.979 354.823 335.306 354.54 328.241 351.997Z" fill="black"/>
<path d="M105.563 366.409C94.4861 355.784 101.889 346.345 107.542 342.954C112.345 342.106 116.286 344.599 117.715 348.888C118.846 352.28 117.904 360.003 116.303 363.3C114.984 365.373 111.215 369.574 105.563 366.409Z" fill="#D5D5D5"/>
<path d="M130.996 363.583C119.918 353.184 128.829 343.99 134.669 340.693C137.608 340.015 140.227 341.541 141.169 342.389C142.111 343.237 144.277 346.289 145.408 351.714C146.538 357.14 142.676 361.322 140.604 362.735C139.002 363.865 134.839 365.618 130.996 363.583Z" fill="#D5D5D5"/>
<path d="M290.94 332.216C292.974 327.921 298.381 326.847 300.83 326.847C304.673 326.847 307.895 329.108 309.025 330.238C310.626 332.31 313.377 337.755 311.568 342.954C309.308 349.454 307.33 349.454 302.808 351.997C298.287 354.54 293.483 349.736 290.94 346.628C288.396 343.519 288.396 337.585 290.94 332.216Z" fill="#D5D5D5"/>
<path d="M322.307 343.802C319.368 339.733 322.024 333.064 323.72 330.238C326.828 326.564 327.393 325.151 332.48 324.586C337.566 324.021 339.799 325.967 343.501 330.238C347.174 334.477 344.348 342.954 341.805 346.628C339.262 350.301 333.61 351.997 329.936 351.149C326.263 350.301 325.98 348.889 322.307 343.802Z" fill="#D5D5D5"/>
<path d="M426.016 207.03L414.995 127.059C414.465 123.215 417.977 123.762 419.799 124.515C433.552 132.616 461.226 148.931 461.904 149.383C462.583 149.835 464.071 157.672 464.73 161.534C466.614 176.699 470.834 209.121 472.643 217.486C474.451 225.851 473.396 232.086 472.643 234.159C460.774 230.108 436.02 221.668 431.95 220.312C427.881 218.955 426.299 210.892 426.016 207.03Z" fill="#525252"/>
<path d="M468.404 172.555C466.821 163.964 466.802 157.672 466.991 155.6C467.046 152.887 470.782 154.469 472.643 155.6C480.555 160.404 497.058 170.52 499.771 172.555C502.484 174.589 502.973 177.17 502.879 178.207C505.799 197.988 511.639 238.454 511.639 242.071C511.639 245.688 510.697 246.969 510.226 247.158C501.372 244.237 483.042 238.228 480.555 237.55C478.068 236.871 476.881 231.804 476.599 229.355C474.526 214.001 469.986 181.145 468.404 172.555Z" fill="#525252"/>
<path d="M505.14 181.88C504.462 176.907 505.422 176.228 505.988 176.511C513.052 180.656 527.747 189.34 530.007 190.923C532.268 192.505 533.775 198.364 534.246 201.096L536.224 211.269C537.92 222.196 541.537 245.632 542.441 251.962C543.345 258.291 541.311 258.555 540.18 257.896C533.022 255.353 518.308 249.983 516.726 248.853C515.143 247.723 514.183 243.861 513.9 242.071C511.263 224.08 505.818 186.854 505.14 181.88Z" fill="#525252"/>
<path d="M544.137 252.809L534.811 195.162C534.482 193.127 537.123 194.314 538.485 195.162C544.137 198.459 555.779 205.391 557.136 206.748C558.492 208.104 559.02 211.457 559.114 212.965C561.374 227.094 566.065 256.539 566.744 261.287C567.422 266.034 565.896 266.468 565.048 266.091C559.585 264.207 548.319 260.326 546.963 259.874C545.606 259.422 544.513 254.976 544.137 252.809Z" fill="#525252"/>
<path d="M568.156 261.287L560.244 210.421C559.841 207.831 561.395 208.212 562.222 208.726C567.026 211.363 576.917 216.864 578.047 217.769C579.177 218.673 580.025 224.174 580.308 226.811C582.003 239.434 585.564 265.582 586.242 269.199C586.92 272.816 585.959 273.344 585.394 273.155C580.684 271.554 571.039 268.295 570.135 268.069C569.23 267.843 568.439 263.453 568.156 261.287Z" fill="#525252"/>
<path d="M598.393 272.308L591.329 228.789C590.851 225.851 592.637 226.246 593.589 226.811C595.191 227.753 598.732 229.863 600.089 230.768C601.445 231.672 601.596 233.217 601.502 233.876L603.762 247.723C604.61 253.374 606.475 265.978 607.153 271.177C607.832 276.377 606.871 277.677 606.306 277.677C604.516 277.3 600.767 276.49 600.089 276.264C599.411 276.038 598.676 273.532 598.393 272.308Z" fill="#525252"/>
<path d="M362.716 178.207L360.738 127.059L372.324 139.21L375.715 168.316C376.563 174.156 378.485 187.588 379.389 194.597C380.519 203.357 379.672 207.03 378.259 209.291C376.846 211.552 375.433 212.682 370.346 211.269C366.277 210.139 364.129 201.755 363.564 197.705L362.716 178.207Z" fill="#525252"/>
<path d="M222.836 228.789C214.924 229.016 213.323 216.638 213.511 210.421V127.059C213.511 117.338 223.496 112.647 228.488 111.516C255.993 106.995 315.299 97.3304 332.48 94.8437C349.661 92.3569 353.203 100.59 352.826 105.017C354.522 130.544 357.913 184.819 357.913 197.705C357.913 210.591 348.87 215.32 344.348 216.073C307.141 220.218 230.749 228.563 222.836 228.789Z" fill="#525252"/>
<path d="M195.426 118.298L104.433 137.232C97.4249 138.69 93.7887 146.882 92.8467 150.796C91.9048 170.671 89.6819 214.095 88.3255 228.789C86.9691 243.484 96.8031 246.781 101.89 246.592C126.851 243.107 179.714 235.741 191.469 234.159C203.225 232.576 206.917 221.442 207.294 216.073C207.388 191.3 207.52 139.379 207.294 129.884C207.068 120.389 199.288 118.204 195.426 118.298Z" fill="#525252"/>
<path d="M385.041 202.791C384.814 199.852 381.744 180.279 380.237 170.859C378.635 158.331 375.32 131.636 374.867 125.08C374.415 118.524 376.751 117.074 377.976 117.168L387.301 122.254C392.576 125.08 403.861 131.241 406.8 133.275C410.473 135.818 411.321 134.688 413.299 138.644C415.277 142.601 425.45 259.309 426.863 274.851C427.994 287.285 432.421 368.764 434.493 407.949C424.132 410.115 402.73 414.053 400.018 412.47C397.305 410.888 396.438 395.986 396.344 388.733C395.496 364.525 393.857 314.469 394.083 307.913C394.309 301.357 390.975 263.171 389.279 244.897C387.961 232.086 385.267 205.73 385.041 202.791Z" fill="#333333"/>
<path d="M588.503 270.047L582.568 232.18C582.391 231.05 583.436 230.956 583.981 231.05C585.488 231.709 589.068 233.311 591.328 234.441C593.589 235.571 594.154 238.115 594.154 239.245L597.828 270.047L603.48 315.826L607.153 349.454L609.697 375.169L602.067 377.712L597.545 339.846L593.307 304.24L588.503 270.047Z" fill="#333333"/>
<path d="M88.6079 318.652V294.915C88.6079 285.42 94.6364 280.409 97.6507 279.09L150.494 272.59V269.765L272.006 255.918V257.613C287.925 256.2 322.476 253.092 333.327 251.962C344.179 250.831 348.775 260.345 349.717 265.243C350.283 270.612 351.356 283.498 351.13 292.089C350.904 300.679 342.182 305.276 337.849 306.501C319.387 308.102 280.371 311.361 272.006 311.587C263.642 311.813 260.232 319.217 259.572 322.891C260.138 320.818 260.929 319.161 259.572 329.108C258.216 339.055 250.53 343.425 246.856 344.367C228.488 346.157 189.491 349.793 180.448 350.019C169.145 350.302 167.167 340.128 166.036 331.651C165.132 324.869 160.762 322.985 158.689 322.891L149.081 324.869C135.517 326.093 106.693 328.655 99.9114 329.108C93.1293 329.56 89.5499 322.326 88.6079 318.652Z" fill="black"/>
<defs>
<linearGradient id="paint0_linear" x1="78.7174" y1="262.417" x2="590.763" y2="309.326" gradientUnits="userSpaceOnUse">
<stop offset="0.456653" stop-color="#06DDFB"/>
<stop offset="1" stop-color="#036995"/>
</linearGradient>
</defs>
</svg>
