<svg width="542" height="420" viewBox="0 0 542 420" fill="none" xmlns="http://www.w3.org/2000/svg">
<path d="M506.112 277.782L493.113 276.652L484.352 307.736L504.981 327.235L514.307 325.822L516.567 324.126L506.112 277.782Z" fill="black"/>
<path d="M121.795 419.358C100.544 422.975 83.5513 399.765 77.7112 387.708L171.53 383.187C171.53 384.694 170.286 389.969 165.313 399.011C159.096 410.315 148.358 414.836 121.795 419.358Z" fill="black"/>
<path d="M391.947 266.196L359.167 261.11L348.429 312.54L369.905 317.062C379.136 327.612 400.198 345.772 410.598 334.017C420.997 322.261 402.497 283.905 391.947 266.196Z" fill="black"/>
<path d="M326.952 411.527C319.524 409.81 303.134 383.384 295.868 370.385C299.232 358.102 308.947 340.334 320.897 367.523C332.846 394.712 354.403 408.188 363.688 411.527C357.229 415.104 336.237 413.673 326.952 411.527Z" fill="black"/>
<path d="M380.361 408.619C428.061 362.501 389.121 283.999 354.646 291.064L338.256 295.585L325.257 379.796C328.271 386.201 336.56 400.933 345.603 408.619C356.906 418.227 370.47 412.01 380.361 408.619Z" fill="#424242"/>
<path d="M372.731 386.295C405.737 367.531 382.621 315.649 364.253 317.062L355.493 318.757C349.842 327.235 340.064 350.802 347.298 369.34C354.532 387.878 367.268 388.367 372.731 386.295Z" fill="#999999"/>
<path d="M459.767 369.34C457.281 366.401 452.514 343.248 450.442 332.039L492.547 325.257C497.351 339.386 506.281 367.984 503.568 369.34C500.855 370.696 474.745 371.601 462.028 371.883C462.311 372.26 462.254 372.279 459.767 369.34Z" fill="black"/>
<path d="M504.416 369.34C497.86 369.34 493.207 340.987 491.417 326.67V290.216C492.453 288.897 495.204 287.051 497.917 290.216C501.308 294.172 507.105 300.943 509.785 328.083C512.046 350.972 507.619 364.442 504.416 369.34Z" fill="#494949"/>
<path d="M505.264 350.689C509.107 331.021 502.909 313.671 499.329 307.454C497.634 307.454 497.916 307.454 497.351 312.54C496.786 317.627 497.916 330.343 500.177 341.364C502.438 352.385 504.416 352.385 505.264 350.689Z" fill="#9E9E9E"/>
<path d="M23.4546 47.757C17.3508 51.6002 14.6945 59.7198 14.1293 63.2993C12.5468 68.4135 11.586 80.8783 11.3034 86.4713L10.1731 87.6017V93.8186H13.5641L6.78206 207.418L3.67362 209.961V226.634L5.36913 300.954H3.10845L0 302.65L2.26069 330.343L7.91241 331.473V346.45L3.10845 351.82V377.535H7.91241V379.796L291.064 369.057L310.845 365.384L318.192 381.209L359.732 371.883C358.602 356.529 356.341 322.939 356.341 311.41C356.341 296.998 359.732 284.282 362.84 276.934C365.327 271.057 367.833 269.964 368.775 270.152L380.361 271C392.342 276.878 399.106 320.17 400.99 341.081L493.678 328.082C491.417 282.303 495.373 281.173 495.939 280.325C496.504 279.478 497.634 279.195 501.59 280.325C504.755 281.23 511.01 311.221 513.741 326.104H520.523L522.784 339.668L533.522 336.277L532.957 332.039L534.37 322.996L542 318.474C535.971 275.616 523.745 188.937 523.067 185.094C522.389 181.251 517.886 176.334 515.72 174.356L269.587 14.9771C267.703 13.8467 262.522 10.6252 256.871 6.78206C249.806 1.9781 241.046 0 235.394 0C229.742 0 190.463 2.54327 178.594 3.9562C169.099 5.08655 124.715 14.7887 103.709 19.4984C87.7901 24.3024 53.7479 34.7016 44.9312 37.8665C33.9103 41.8227 31.0845 42.9531 23.4546 47.757Z" fill="url(#paint0_linear)"/>
<path d="M50.5829 46.3441V55.6694L51.1481 63.0167C50.9597 65.7483 52.561 71.3247 60.4734 71.7768C70.3639 72.342 204.31 44.6486 209.114 42.6705C212.957 41.088 215.425 34.0987 216.178 30.8019C216.272 27.0341 216.065 18.142 214.483 12.7164C212.505 5.93431 209.396 6.21689 201.201 6.21689C173.79 5.08654 68.6684 32.78 59.6256 35.8884C52.3914 38.3752 50.5829 43.895 50.5829 46.3441Z" fill="black"/>
<path d="M54.8217 63.0167L53.6913 48.6048C53.6913 41.8228 58.2127 40.1345 62.1689 38.7143C95.2315 26.8457 165.595 14.4119 189.333 10.4557C208.322 7.29076 213.07 13.0932 213.07 16.39C213.258 19.5927 213.522 27.4109 213.07 33.0626C212.505 40.1273 204.875 40.7715 201.201 42.3879C198.658 43.507 69.2336 67.8207 62.1689 68.6684C56.5172 69.3467 54.9159 65.1832 54.8217 63.0167Z" fill="#550CEF"/>
<path d="M273.826 328.93L9.89052 346.451H6.78208C4.29532 346.451 3.29685 349.465 3.10846 350.972V376.122C3.10846 377.705 6.68788 377.535 8.47759 377.252L113.882 371.036C162.675 368.775 261.053 364.253 264.218 364.253C267.383 364.253 282.492 363.5 289.651 363.123C289.462 356.624 288.973 342.042 288.52 335.712C288.068 329.382 278.536 328.553 273.826 328.93Z" fill="#088F87"/>
<path d="M6.49924 384.882L9.89027 383.186C9.89027 383.752 10.512 384.882 12.9989 384.882C13.3893 384.882 17.3542 384.735 24.0198 384.477C26.1863 382.445 30.6323 377.817 31.0844 375.557L247.828 364.818C248.581 368.353 250.993 375.386 254.61 375.244C257.785 375.119 260.007 375.032 261.109 374.991C276.369 374.426 276.652 372.448 281.456 371.6C286.26 370.753 285.977 376.404 284.564 378.383C283.434 379.965 277.876 380.926 275.239 381.208C189.521 384.599 17.0682 391.438 12.9989 391.664C7.91237 391.947 6.49924 390.534 5.65148 388.556C4.97327 386.973 5.93406 385.447 6.49924 384.882Z" fill="#808080"/>
<path d="M24.0198 384.477C17.3542 384.735 13.3893 384.882 12.9989 384.882C10.512 384.882 9.89027 383.752 9.89027 383.186L6.49924 384.882C5.93406 385.447 4.97327 386.973 5.65148 388.556C6.49924 390.534 7.91237 391.947 12.9989 391.664C17.0682 391.438 189.521 384.599 275.239 381.208C277.876 380.926 283.434 379.965 284.564 378.383C285.977 376.404 286.26 370.753 281.456 371.6C276.652 372.448 276.369 374.426 261.109 374.991C260.007 375.032 257.785 375.119 254.61 375.244M24.0198 384.477C26.1863 382.445 30.6323 377.817 31.0844 375.557L247.828 364.818C248.581 368.353 250.993 375.386 254.61 375.244M24.0198 384.477C66.5953 382.826 219.356 376.637 254.61 375.244" stroke="#AFAFAF"/>
<path d="M2.82581 226.069V209.396C5.08649 208.04 8.85431 207.512 10.4556 207.418C86.8481 198.281 243.363 179.442 258.284 177.181C273.204 174.921 286.354 175.486 291.064 176.051L306.041 180.007C306.7 185.47 307.793 196.284 306.888 195.832C305.758 195.267 292.759 192.158 287.955 191.593C284.112 191.141 261.863 193.289 251.219 194.419C171.341 203.839 10.7947 222.791 7.62977 223.243C4.4648 223.695 3.10839 225.315 2.82581 226.069Z" fill="#4BBF22"/>
<path d="M12.7164 337.125V304.628V292.194L72.342 287.673V333.734L12.7164 337.125Z" fill="#929292"/>
<path d="M201.766 323.844L200.071 276.934L271.283 269.87L273.826 319.887L201.766 323.844Z" fill="#929292"/>
<path d="M207.136 318.192L205.157 282.021V279.195L266.479 274.956L268.457 315.366L207.136 318.192Z" fill="#505050"/>
<path d="M66.6903 293.607L17.2377 297.846V332.886L68.3858 328.648L66.6903 293.607Z" fill="#505050"/>
<path d="M24.5852 324.126C16.2207 316.892 20.5348 306.606 23.7375 302.367C27.6938 298.694 35.8885 296.998 41.5402 303.497C46.0616 308.697 43.4241 317.156 41.5402 320.735C39.3738 324.88 32.9498 331.36 24.5852 324.126Z" fill="black"/>
<path d="M50.8655 322.431C40.4664 309.319 48.9816 300.201 54.5391 297.281C60.643 293.211 65.9368 298.976 67.8207 302.367V320.735C67.2555 321.866 65.447 324.296 62.7341 324.974C55.3869 325.822 55.6695 325.257 50.8655 322.431Z" fill="black"/>
<path d="M208.549 297.563C209.227 286.712 218.062 282.68 222.395 282.021C225.916 280.891 229.891 283.245 231.438 284.564C234.358 286.825 239.576 293.607 237.09 302.65C234.603 311.692 226.257 313.765 222.395 313.67C217.497 312.823 207.87 308.414 208.549 297.563Z" fill="black"/>
<path d="M249.241 309.997C231.834 295.981 244.437 284.376 252.915 280.325C258.34 278.291 264.783 283.434 267.326 286.26L268.174 302.65C268.645 302.65 268.626 303.667 264.783 307.736C259.979 312.823 256.306 312.54 249.241 309.997Z" fill="black"/>
<path d="M26.5635 324.409C15.4861 313.784 22.8894 304.345 28.542 300.954C33.3452 300.106 37.2857 302.599 38.7155 306.888C39.8458 310.28 38.9039 318.003 37.3025 321.3C35.9838 323.373 32.2152 327.574 26.5635 324.409Z" fill="#D5D5D5"/>
<path d="M51.9958 321.583C40.9184 311.184 49.8293 301.99 55.6694 298.693C58.6083 298.015 61.227 299.541 62.1689 300.389C63.1109 301.237 65.2774 304.289 66.4077 309.714C67.5381 315.14 63.676 319.322 61.6037 320.735C60.0024 321.865 55.839 323.618 51.9958 321.583Z" fill="#D5D5D5"/>
<path d="M211.94 290.216C213.974 285.921 219.381 284.847 221.83 284.847C225.673 284.847 228.895 287.108 230.025 288.238C231.626 290.31 234.377 295.755 232.568 300.954C230.308 307.454 228.33 307.454 223.808 309.997C219.287 312.54 214.483 307.736 211.94 304.628C209.396 301.519 209.396 295.585 211.94 290.216Z" fill="#D5D5D5"/>
<path d="M243.307 301.802C240.368 297.733 243.024 291.064 244.72 288.238C247.828 284.564 248.393 283.151 253.48 282.586C258.566 282.021 260.799 283.967 264.501 288.238C268.174 292.477 265.348 300.954 262.805 304.628C260.262 308.301 254.61 309.997 250.936 309.149C247.263 308.301 246.98 306.889 243.307 301.802Z" fill="#D5D5D5"/>
<path d="M347.016 165.03L335.995 85.0585C335.465 81.2153 338.977 81.7617 340.799 82.5152C354.552 90.616 382.226 106.931 382.904 107.383C383.583 107.835 385.071 115.672 385.73 119.534C387.614 134.699 391.834 167.121 393.643 175.486C395.451 183.851 394.396 190.086 393.643 192.159C381.774 188.108 357.02 179.668 352.95 178.312C348.881 176.955 347.299 168.892 347.016 165.03Z" fill="#525252"/>
<path d="M389.404 130.555C387.821 121.964 387.802 115.672 387.991 113.6C388.046 110.887 391.782 112.469 393.643 113.6C401.555 118.404 418.058 128.52 420.771 130.555C423.484 132.589 423.973 135.17 423.879 136.207C426.799 155.988 432.639 196.454 432.639 200.071C432.639 203.688 431.697 204.969 431.226 205.158C422.372 202.237 404.042 196.228 401.555 195.55C399.068 194.871 397.881 189.804 397.599 187.355C395.526 172.001 390.986 139.145 389.404 130.555Z" fill="#525252"/>
<path d="M426.14 139.88C425.462 134.907 426.422 134.228 426.988 134.511C434.052 138.656 448.747 147.34 451.007 148.923C453.268 150.505 454.775 156.364 455.246 159.096L457.224 169.269C458.92 180.196 462.537 203.632 463.441 209.962C464.345 216.291 462.311 216.555 461.18 215.896C454.022 213.353 439.308 207.983 437.726 206.853C436.143 205.723 435.183 201.861 434.9 200.071C432.263 182.08 426.818 144.854 426.14 139.88Z" fill="#525252"/>
<path d="M465.137 210.809L455.811 153.162C455.482 151.127 458.123 152.314 459.485 153.162C465.137 156.459 476.779 163.391 478.136 164.748C479.492 166.104 480.02 169.457 480.114 170.965C482.374 185.094 487.065 214.539 487.744 219.287C488.422 224.034 486.896 224.468 486.048 224.091C480.585 222.207 469.319 218.326 467.963 217.874C466.606 217.422 465.513 212.976 465.137 210.809Z" fill="#525252"/>
<path d="M489.156 219.287L481.244 168.421C480.841 165.831 482.395 166.212 483.222 166.726C488.026 169.363 497.917 174.864 499.047 175.769C500.177 176.673 501.025 182.174 501.308 184.811C503.003 197.434 506.564 223.582 507.242 227.199C507.92 230.816 506.959 231.344 506.394 231.155C501.684 229.554 492.039 226.295 491.135 226.069C490.23 225.843 489.439 221.453 489.156 219.287Z" fill="#525252"/>
<path d="M519.393 230.308L512.329 186.789C511.851 183.851 513.637 184.246 514.589 184.811C516.191 185.753 519.732 187.863 521.089 188.768C522.445 189.672 522.596 191.217 522.502 191.876L524.762 205.723C525.61 211.374 527.475 223.978 528.153 229.177C528.832 234.377 527.871 235.677 527.306 235.677C525.516 235.3 521.767 234.49 521.089 234.264C520.411 234.038 519.676 231.532 519.393 230.308Z" fill="#525252"/>
<path d="M283.716 136.207L281.738 85.0585L293.324 97.2097L296.715 126.316C297.563 132.156 299.485 145.588 300.389 152.597C301.519 161.357 300.672 165.03 299.259 167.291C297.846 169.552 296.433 170.682 291.346 169.269C287.277 168.139 285.129 159.755 284.564 155.705L283.716 136.207Z" fill="#525252"/>
<path d="M143.836 186.789C135.924 187.016 134.323 174.638 134.511 168.421V85.0585C134.511 75.3376 144.496 70.6466 149.488 69.5162C176.993 64.9948 236.299 55.3304 253.48 52.8437C270.661 50.3569 274.203 58.5896 273.826 63.0168C275.522 88.5437 278.913 142.819 278.913 155.705C278.913 168.591 269.87 173.32 265.348 174.073C228.141 178.218 151.749 186.563 143.836 186.789Z" fill="#525252"/>
<path d="M116.426 76.2983L25.4329 95.2315C18.4249 96.6897 14.7887 104.882 13.8467 108.796C12.9048 128.671 10.6819 172.095 9.32547 186.789C7.96906 201.484 17.8031 204.781 22.8896 204.592C47.8514 201.107 100.714 193.741 112.469 192.159C124.225 190.576 127.917 179.442 128.294 174.073C128.388 149.3 128.52 97.3792 128.294 87.8843C128.068 78.3894 120.288 76.2041 116.426 76.2983Z" fill="#525252"/>
<path d="M306.041 160.791C305.814 157.852 302.744 138.279 301.237 128.859C299.635 116.331 296.32 89.6362 295.867 83.0802C295.415 76.5242 297.751 75.0736 298.976 75.1678L308.301 80.2543C313.576 83.0802 324.861 89.2406 327.8 91.2752C331.473 93.8185 332.321 92.6881 334.299 96.6443C336.277 100.601 346.45 217.309 347.863 232.851C348.994 245.285 353.421 326.764 355.493 365.949C345.132 368.115 323.73 372.053 321.018 370.47C318.305 368.888 317.438 353.986 317.344 346.733C316.496 322.525 314.857 272.469 315.083 265.913C315.309 259.357 311.975 221.171 310.279 202.897C308.961 190.086 306.267 163.73 306.041 160.791Z" fill="#333333"/>
<path d="M509.503 228.047L503.568 190.18C503.391 189.05 504.436 188.956 504.981 189.05C506.488 189.709 510.068 191.311 512.328 192.441C514.589 193.571 515.154 196.115 515.154 197.245L518.828 228.047L524.48 273.826L528.153 307.454L530.697 333.169L523.067 335.712L518.545 297.846L514.307 262.24L509.503 228.047Z" fill="#333333"/>
<path d="M9.60791 276.652V252.915C9.60791 243.42 15.6364 238.409 18.6507 237.09L71.4943 230.59V227.765L193.006 213.918V215.613C208.925 214.2 243.476 211.092 254.327 209.962C265.179 208.831 269.775 218.345 270.717 223.243C271.283 228.612 272.356 241.498 272.13 250.089C271.904 258.679 263.182 263.276 258.849 264.501C240.387 266.102 201.371 269.361 193.006 269.587C184.642 269.813 181.232 277.217 180.572 280.891C181.138 278.818 181.929 277.161 180.572 287.108C179.216 297.055 171.53 301.425 167.856 302.367C149.488 304.157 110.491 307.793 101.448 308.019C90.1449 308.302 88.1668 298.128 87.0365 289.651C86.1322 282.869 81.7615 280.985 79.6892 280.891L70.0813 282.869C56.5172 284.093 27.6934 286.655 20.9114 287.108C14.1293 287.56 10.5499 280.326 9.60791 276.652Z" fill="black"/>
<defs>
<linearGradient id="paint0_linear" x1="-0.282586" y1="220.417" x2="511.763" y2="267.326" gradientUnits="userSpaceOnUse">
<stop offset="0.456653" stop-color="#06DDFB"/>
<stop offset="1" stop-color="#036995"/>
</linearGradient>
</defs>
</svg>
