<svg width="543" height="421" viewBox="0 0 543 421" fill="none" xmlns="http://www.w3.org/2000/svg">
<path d="M506.608 278.531L493.609 277.401L484.849 308.485L505.478 327.984L514.803 326.571L517.064 324.875L506.608 278.531Z" fill="black"/>
<path d="M122.291 420.107C101.041 423.724 84.0479 400.514 78.2078 388.457L172.026 383.936C172.026 385.443 170.783 390.718 165.809 399.761C159.593 411.064 148.854 415.586 122.291 420.107Z" fill="black"/>
<path d="M392.444 266.946L359.664 261.859L348.925 313.29L370.402 317.811C379.633 328.361 400.695 346.522 411.094 334.766C421.493 323.011 402.993 284.654 392.444 266.946Z" fill="black"/>
<path d="M327.449 412.276C320.021 410.559 303.631 384.133 296.364 371.135C299.728 358.852 309.444 341.083 321.393 368.273C333.343 395.462 354.9 408.937 364.185 412.276C357.726 415.854 336.734 414.423 327.449 412.276Z" fill="black"/>
<path d="M380.857 409.369C428.558 363.251 389.618 284.748 355.142 291.813L338.752 296.334L325.753 380.545C328.767 386.95 337.057 401.682 346.099 409.369C357.403 418.977 370.967 412.76 380.857 409.369Z" fill="#424242"/>
<path d="M373.228 387.044C406.234 368.281 383.118 316.398 364.75 317.811L355.99 319.506C350.338 327.984 340.561 351.552 347.795 370.089C355.029 388.627 367.764 389.117 373.228 387.044Z" fill="#999999"/>
<path d="M460.264 370.089C457.777 367.151 453.011 343.997 450.939 332.788L493.044 326.006C497.848 340.135 506.778 368.733 504.065 370.089C501.352 371.446 475.241 372.35 462.525 372.633C462.807 373.009 462.751 373.028 460.264 370.089Z" fill="black"/>
<path d="M504.913 370.09C498.357 370.09 493.703 341.737 491.914 327.419V290.965C492.95 289.647 495.7 287.8 498.413 290.965C501.804 294.922 507.601 301.692 510.282 328.832C512.542 351.721 508.115 365.191 504.913 370.09Z" fill="#494949"/>
<path d="M505.76 351.439C509.603 331.771 503.405 314.42 499.826 308.203C498.13 308.203 498.413 308.203 497.848 313.29C497.283 318.376 498.413 331.092 500.674 342.113C502.934 353.134 504.913 353.134 505.76 351.439Z" fill="#9E9E9E"/>
<path d="M23.9512 48.5064C17.8474 52.3496 15.1911 60.4692 14.6259 64.0487C13.0434 69.1629 12.0826 81.6276 11.8 87.2207L10.6697 88.3511V94.568H14.0607L7.27865 208.168L4.1702 210.711V227.383L5.86572 301.704H3.60503L0.496582 303.399L2.75727 331.092L8.40899 332.223V347.2L3.60503 352.569V378.284H8.40899V380.545L291.56 369.807L311.341 366.133L318.688 381.958L360.229 372.633C359.098 357.279 356.838 323.689 356.838 312.159C356.838 297.747 360.229 285.031 363.337 277.684C365.824 271.806 368.329 270.713 369.271 270.902L380.857 271.749C392.839 277.627 399.602 320.919 401.486 341.831L494.174 328.832C491.914 283.053 495.87 281.922 496.435 281.075C497 280.227 498.131 279.944 502.087 281.075C505.252 281.979 511.506 311.971 514.238 326.854H521.02L523.281 340.418L534.019 337.027L533.454 332.788L534.867 323.745L542.497 319.224C536.468 276.365 524.242 189.686 523.563 185.843C522.885 182 518.383 177.083 516.216 175.105L270.084 15.7264C268.2 14.5961 263.019 11.3746 257.367 7.53145C250.303 2.72749 241.542 0.74939 235.891 0.74939C230.239 0.74939 190.96 3.29266 179.091 4.70559C169.596 5.83594 125.211 15.5381 104.206 20.2478C88.2866 25.0518 54.2444 35.451 45.4278 38.6159C34.4069 42.5721 31.581 43.7025 23.9512 48.5064Z" fill="url(#paint0_linear)"/>
<path d="M51.0796 47.0935V56.4188L51.6448 63.7661C51.4564 66.4977 53.0577 72.0741 60.9701 72.5262C70.8606 73.0914 204.806 45.398 209.61 43.4199C213.454 41.8374 215.921 34.8481 216.675 31.5513C216.769 27.7835 216.562 18.8914 214.979 13.4658C213.001 6.6837 209.893 6.96628 201.698 6.96628C174.287 5.83593 69.1651 33.5294 60.1223 36.6378C52.8881 39.1246 51.0796 44.6444 51.0796 47.0935Z" fill="black"/>
<path d="M55.3183 63.7661L54.188 49.3542C54.188 42.5722 58.7094 40.8839 62.6656 39.4637C95.7281 27.5951 166.092 15.1613 189.829 11.2051C208.819 8.04015 213.566 13.8426 213.566 17.1394C213.755 20.3421 214.019 28.1603 213.566 33.812C213.001 40.8766 205.372 41.5209 201.698 43.1373C199.155 44.2564 69.7302 68.5701 62.6656 69.4178C57.0138 70.096 55.4125 65.9326 55.3183 63.7661Z" fill="#0292BE"/>
<path d="M274.322 329.68L10.387 347.2H7.2786C4.79184 347.2 3.79337 350.214 3.60498 351.721V376.871C3.60498 378.454 7.1844 378.284 8.97412 378.002L114.379 371.785C163.172 369.524 261.55 365.003 264.714 365.003C267.879 365.003 282.988 364.249 290.147 363.873C289.959 357.373 289.469 342.792 289.017 336.462C288.565 330.132 279.032 329.303 274.322 329.68Z" fill="#3A637E"/>
<path d="M6.99582 385.631L10.3869 383.936C10.3869 384.501 11.0086 385.631 13.4955 385.631C13.8859 385.631 17.8508 385.484 24.5163 385.226C26.6828 383.195 31.1289 378.567 31.581 376.306L248.324 365.568C249.078 369.102 251.489 376.136 255.107 375.994C258.282 375.868 260.504 375.782 261.606 375.741C276.866 375.176 277.148 373.198 281.952 372.35C286.756 371.502 286.474 377.154 285.061 379.132C283.93 380.714 278.373 381.675 275.735 381.958C190.018 385.349 17.5647 392.187 13.4955 392.413C8.40895 392.696 6.99582 391.283 6.14806 389.305C5.46985 387.723 6.43065 386.197 6.99582 385.631Z" fill="#808080"/>
<path d="M24.5164 385.226C17.8508 385.484 13.8859 385.631 13.4955 385.631C11.0086 385.631 10.3869 384.501 10.3869 383.936L6.99582 385.631C6.43065 386.197 5.46985 387.723 6.14806 389.305C6.99582 391.283 8.40895 392.696 13.4955 392.413C17.5647 392.187 190.018 385.349 275.735 381.958C278.373 381.675 283.93 380.714 285.061 379.132C286.474 377.154 286.756 371.502 281.952 372.35C277.148 373.198 276.866 375.176 261.606 375.741C260.504 375.782 258.282 375.868 255.107 375.994M24.5164 385.226C26.6828 383.195 31.1289 378.567 31.581 376.306L248.324 365.568C249.078 369.102 251.489 376.136 255.107 375.994M24.5164 385.226C67.0919 383.576 219.853 377.387 255.107 375.994" stroke="#AFAFAF"/>
<path d="M3.32227 226.818V210.146C5.58295 208.789 9.35077 208.262 10.9521 208.167C87.3445 199.03 243.859 180.191 258.78 177.931C273.701 175.67 286.85 176.235 291.56 176.8L306.537 180.757C307.196 186.22 308.289 197.033 307.385 196.581C306.254 196.016 293.256 192.908 288.452 192.343C284.608 191.89 262.359 194.038 251.715 195.168C171.838 204.588 11.2912 223.54 8.12623 223.992C4.96126 224.444 3.60485 226.065 3.32227 226.818Z" fill="#3A637E"/>
<path d="M13.2129 337.874V305.377V292.943L72.8385 288.422V334.483L13.2129 337.874Z" fill="#929292"/>
<path d="M202.263 324.593L200.567 277.684L271.779 270.619L274.322 320.637L202.263 324.593Z" fill="#929292"/>
<path d="M207.632 318.941L205.654 282.77V279.944L266.975 275.706L268.953 316.115L207.632 318.941Z" fill="#505050"/>
<path d="M67.1869 294.356L17.7344 298.595V333.636L68.8824 329.397L67.1869 294.356Z" fill="#505050"/>
<path d="M25.0819 324.876C16.7173 317.641 21.0315 307.355 24.2341 303.117C28.1905 299.443 36.3851 297.747 42.0368 304.247C46.5582 309.446 43.9207 317.905 42.0368 321.485C39.8704 325.629 33.4464 332.11 25.0819 324.876Z" fill="black"/>
<path d="M51.3622 323.18C40.963 310.068 49.4783 300.95 55.0358 298.03C61.1396 293.961 66.4334 299.725 68.3173 303.117V321.485C67.7522 322.615 65.9436 325.045 63.2308 325.723C55.8835 326.571 56.1661 326.006 51.3622 323.18Z" fill="black"/>
<path d="M209.045 298.312C209.723 287.461 218.559 283.43 222.892 282.77C226.412 281.64 230.387 283.995 231.935 285.314C234.855 287.574 240.073 294.356 237.586 303.399C235.1 312.442 226.754 314.514 222.892 314.42C217.994 313.572 208.367 309.164 209.045 298.312Z" fill="black"/>
<path d="M249.738 310.746C232.33 296.73 244.934 285.125 253.411 281.075C258.837 279.04 265.28 284.183 267.823 287.009L268.671 303.399C269.142 303.399 269.123 304.416 265.28 308.486C260.476 313.572 256.802 313.29 249.738 310.746Z" fill="black"/>
<path d="M27.06 325.158C15.9827 314.533 23.386 305.095 29.0386 301.703C33.8418 300.856 37.7823 303.348 39.2121 307.638C40.3424 311.029 39.4004 318.753 37.7991 322.05C36.4804 324.122 32.7117 328.323 27.06 325.158Z" fill="#D5D5D5"/>
<path d="M52.4925 322.332C41.4151 311.933 50.326 302.74 56.1661 299.443C59.105 298.765 61.7237 300.291 62.6656 301.138C63.6076 301.986 65.7741 305.038 66.9044 310.464C68.0348 315.889 64.1728 320.072 62.1005 321.485C60.4991 322.615 56.3357 324.367 52.4925 322.332Z" fill="#D5D5D5"/>
<path d="M212.436 290.965C214.471 286.67 219.877 285.596 222.327 285.596C226.17 285.596 229.391 287.857 230.522 288.987C232.123 291.06 234.873 296.504 233.065 301.704C230.804 308.203 228.826 308.203 224.305 310.746C219.783 313.29 214.979 308.486 212.436 305.377C209.893 302.269 209.893 296.334 212.436 290.965Z" fill="#D5D5D5"/>
<path d="M243.803 302.551C240.864 298.482 243.52 291.813 245.216 288.987C248.324 285.314 248.89 283.901 253.976 283.336C259.063 282.77 261.296 284.716 264.997 288.987C268.671 293.226 265.845 301.704 263.302 305.377C260.758 309.051 255.107 310.746 251.433 309.899C247.759 309.051 247.477 307.638 243.803 302.551Z" fill="#D5D5D5"/>
<path d="M347.512 165.78L336.492 85.8079C335.962 81.9647 339.474 82.5111 341.296 83.2646C355.048 91.3654 382.723 107.68 383.401 108.132C384.079 108.584 385.567 116.421 386.227 120.283C388.111 135.449 392.331 167.871 394.139 176.235C395.948 184.6 394.893 190.836 394.139 192.908C382.271 188.858 357.516 180.418 353.447 179.061C349.378 177.705 347.795 169.642 347.512 165.78Z" fill="#525252"/>
<path d="M389.9 131.304C388.318 122.714 388.299 116.421 388.487 114.349C388.543 111.636 392.278 113.219 394.139 114.349C402.051 119.153 418.554 129.27 421.267 131.304C423.98 133.339 424.47 135.92 424.376 136.956C427.296 156.737 433.136 197.203 433.136 200.82C433.136 204.437 432.194 205.719 431.723 205.907C422.868 202.987 404.538 196.977 402.051 196.299C399.565 195.621 398.378 190.553 398.095 188.104C396.023 172.75 391.483 139.895 389.9 131.304Z" fill="#525252"/>
<path d="M426.636 140.63C425.958 135.656 426.919 134.978 427.484 135.26C434.549 139.405 449.243 148.09 451.504 149.672C453.765 151.255 455.272 157.114 455.743 159.845L457.721 170.019C459.416 180.945 463.033 204.381 463.938 210.711C464.842 217.041 462.807 217.305 461.677 216.645C454.518 214.102 439.805 208.733 438.222 207.602C436.64 206.472 435.679 202.61 435.396 200.82C432.759 182.829 427.314 145.603 426.636 140.63Z" fill="#525252"/>
<path d="M465.633 211.559L456.308 153.911C455.979 151.876 458.62 153.063 459.981 153.911C465.633 157.208 477.276 164.141 478.632 165.497C479.989 166.854 480.516 170.207 480.61 171.714C482.871 185.843 487.562 215.289 488.24 220.036C488.918 224.784 487.392 225.217 486.545 224.84C481.081 222.956 469.815 219.075 468.459 218.623C467.103 218.171 466.01 213.725 465.633 211.559Z" fill="#525252"/>
<path d="M489.653 220.036L481.741 169.171C481.338 166.581 482.891 166.961 483.719 167.475C488.523 170.113 498.413 175.614 499.543 176.518C500.674 177.422 501.522 182.923 501.804 185.561C503.5 198.183 507.06 224.332 507.738 227.949C508.417 231.566 507.456 232.093 506.891 231.905C502.181 230.304 492.535 227.044 491.631 226.818C490.727 226.592 489.936 222.203 489.653 220.036Z" fill="#525252"/>
<path d="M519.89 231.057L512.825 187.539C512.348 184.6 514.133 184.996 515.086 185.561C516.687 186.503 520.229 188.613 521.585 189.517C522.942 190.421 523.092 191.966 522.998 192.625L525.259 206.472C526.107 212.124 527.972 224.727 528.65 229.927C529.328 235.126 528.367 236.426 527.802 236.426C526.012 236.049 522.263 235.239 521.585 235.013C520.907 234.787 520.172 232.282 519.89 231.057Z" fill="#525252"/>
<path d="M284.213 136.956L282.235 85.8079L293.821 97.9591L297.212 127.065C298.06 132.906 299.981 146.338 300.885 153.346C302.016 162.106 301.168 165.78 299.755 168.04C298.342 170.301 296.929 171.431 291.843 170.019C287.773 168.888 285.626 160.505 285.061 156.454L284.213 136.956Z" fill="#525252"/>
<path d="M144.333 187.539C136.42 187.765 134.819 175.388 135.007 169.171V85.8079C135.007 76.087 144.992 71.396 149.985 70.2656C177.49 65.7442 236.795 56.0798 253.976 53.593C271.158 51.1063 274.699 59.339 274.322 63.7661C276.018 89.2931 279.409 143.568 279.409 156.454C279.409 169.34 270.366 174.069 265.845 174.822C228.638 178.967 152.245 187.313 144.333 187.539Z" fill="#525252"/>
<path d="M116.922 77.0477L25.9293 95.9809C18.9213 97.4391 15.2852 105.631 14.3431 109.545C13.4012 129.42 11.1783 172.844 9.82193 187.539C8.46552 202.233 18.2995 205.53 23.3861 205.342C48.3478 201.857 101.21 194.49 112.966 192.908C124.721 191.325 128.414 180.192 128.791 174.822C128.885 150.049 129.017 98.1286 128.791 88.6337C128.565 79.1388 120.784 76.9535 116.922 77.0477Z" fill="#525252"/>
<path d="M306.537 161.541C306.311 158.602 303.24 139.028 301.733 129.609C300.132 117.081 296.816 90.3856 296.364 83.8296C295.912 77.2736 298.248 75.823 299.472 75.9172L308.798 81.0037C314.073 83.8296 325.357 89.99 328.296 92.0246C331.97 94.5679 332.818 93.4375 334.796 97.3937C336.774 101.35 346.947 218.058 348.36 233.6C349.49 246.034 353.917 327.513 355.99 366.698C345.628 368.865 324.227 372.802 321.514 371.22C318.801 369.637 317.935 354.735 317.84 347.482C316.993 323.274 315.354 273.219 315.58 266.663C315.806 260.107 312.471 221.92 310.776 203.646C309.457 190.835 306.763 164.48 306.537 161.541Z" fill="#333333"/>
<path d="M509.999 228.796L504.065 190.93C503.888 189.799 504.933 189.705 505.478 189.799C506.985 190.459 510.564 192.06 512.825 193.19C515.086 194.321 515.651 196.864 515.651 197.994L519.324 228.796L524.976 274.575L528.65 308.203L531.193 333.918L523.563 336.462L519.042 298.595L514.803 262.989L509.999 228.796Z" fill="#333333"/>
<path d="M10.1045 277.401V253.664C10.1045 244.169 16.133 239.158 19.1472 237.839L71.9908 231.34V228.514L193.503 214.667V216.363C209.422 214.95 243.973 211.841 254.824 210.711C265.675 209.581 270.272 219.094 271.214 223.993C271.779 229.362 272.853 242.248 272.627 250.838C272.401 259.429 263.678 264.026 259.345 265.25C240.883 266.851 201.867 270.111 193.503 270.337C185.138 270.563 181.728 277.966 181.069 281.64C181.634 279.568 182.425 277.91 181.069 287.857C179.713 297.804 172.026 302.175 168.353 303.117C149.985 304.906 110.988 308.542 101.945 308.768C90.6415 309.051 88.6634 298.878 87.5331 290.4C86.6288 283.618 82.2581 281.734 80.1858 281.64L70.5779 283.618C57.0138 284.843 28.19 287.405 21.4079 287.857C14.6259 288.309 11.0464 281.075 10.1045 277.401Z" fill="black"/>
<defs>
<linearGradient id="paint0_linear" x1="0.213996" y1="221.166" x2="512.26" y2="268.076" gradientUnits="userSpaceOnUse">
<stop offset="0.456653" stop-color="#72D7F6"/>
<stop offset="1" stop-color="#0292BE"/>
</linearGradient>
</defs>
</svg>
