<svg width="307" height="316" viewBox="0 0 307 316" fill="none" xmlns="http://www.w3.org/2000/svg">
<path d="M46.4518 30.482C89.1424 -24.0059 138.236 7.06918 155.312 28.3535C170.254 11.326 214.698 -26.9857 262.038 30.4819C304.119 81.5641 207.964 175.925 155.312 217.784C102.661 177.344 3.76123 84.9699 46.4518 30.482Z" fill="#D3EFF8"/>
<path d="M135.629 57.102C135.629 53.9149 138.285 53.1182 139.613 53.1182H166.171C169.358 53.1182 170.155 54.8888 170.155 55.7741V83.6611H196.715C200.964 83.6611 202.027 86.317 202.027 87.6449V114.204C202.027 117.391 198.486 118.188 196.715 118.188H170.155V144.747C170.155 147.934 167.942 148.731 166.171 148.731H139.613C136.426 148.731 135.629 146.075 135.629 144.747V118.188H110.398C106.149 118.188 106.414 115.975 106.414 114.204C106.414 106.236 106.413 90.832 106.413 87.6449C106.413 84.4578 108.627 83.6611 110.398 83.6611H135.629V57.102Z" fill="#0292BE"/>
<path d="M149.896 232.051C168.345 233.204 202.745 215.236 217.638 206.108C230.322 203.802 228.688 212.834 226.286 217.638C220.041 221.482 207.261 229.457 206.108 230.61C204.667 232.051 203.225 234.934 207.549 234.934C211.873 234.934 223.404 227.727 230.61 223.403C237.817 219.079 265.202 181.605 276.732 177.281C285.957 173.822 286.341 179.684 285.38 183.047L279.615 188.812C276.156 192.271 280.095 192.175 282.498 191.695C282.017 191.695 283.362 190.253 292.587 184.488C301.811 178.723 306.039 184.968 307 188.812C296.911 183.047 208.991 278.173 207.549 278.173C175.84 273.85 136.925 314.206 138.366 315.648C126.836 315.648 122.031 301.234 121.07 294.028C113.864 262.319 142.69 232.051 149.896 232.051Z" fill="#72D7F6"/>
<path d="M115.305 268.084C117.611 248.482 133.562 234.934 141.249 230.61V224.845C136.925 229.169 92.2441 206.108 80.7136 201.784C69.1831 197.46 67.7418 200.343 70.6244 208.991C73.507 217.638 80.7136 213.314 82.1549 217.638C83.5962 221.962 92.2441 223.404 80.7136 221.962C69.1831 220.521 34.5915 178.723 28.8263 175.84C23.061 172.957 21.6197 175.84 21.6197 178.723C21.6197 181.605 25.9437 181.605 27.385 187.371C28.538 191.983 26.9045 191.214 25.9437 190.253C24.0219 188.812 18.4488 184.776 11.5305 180.164C4.61221 175.552 0.960876 182.086 0 185.929C12.9718 180.164 66.3005 247.906 85.0376 260.878C103.775 273.849 113.864 268.084 115.305 268.084Z" fill="#72D7F6"/>
</svg>
