<svg width="567" height="443" viewBox="0 0 567 443" fill="none" xmlns="http://www.w3.org/2000/svg">
<path d="M167.452 107.482C210.142 52.9941 259.236 84.0692 276.312 105.354C291.254 88.326 335.697 50.0143 383.038 107.482C425.119 158.564 328.964 252.925 276.312 294.784C223.661 254.344 124.761 161.97 167.452 107.482Z" fill="#3A637E"/>
<path d="M256.629 134.102C256.629 130.915 259.285 130.118 260.613 130.118H287.171C290.358 130.118 291.155 131.889 291.155 132.774V160.661H317.715C321.964 160.661 323.027 163.317 323.027 164.645V191.204C323.027 194.391 319.486 195.188 317.715 195.188H291.155V221.747C291.155 224.934 288.942 225.731 287.171 225.731H260.613C257.426 225.731 256.629 223.075 256.629 221.747V195.188H231.398C227.149 195.188 227.414 192.975 227.414 191.204C227.414 183.236 227.413 167.832 227.413 164.645C227.413 161.458 229.627 160.661 231.398 160.661H256.629V134.102Z" fill="#72D7F6"/>
<path d="M270.896 309.051C289.345 310.204 323.745 292.236 338.638 283.108C351.322 280.802 349.688 289.834 347.286 294.638C341.041 298.482 328.261 306.457 327.108 307.61C325.667 309.051 324.225 311.934 328.549 311.934C332.873 311.934 344.404 304.727 351.61 300.403C358.817 296.079 386.202 258.605 397.732 254.281C406.957 250.822 407.341 256.684 406.38 260.047L400.615 265.812C397.156 269.271 401.095 269.175 403.498 268.695C403.017 268.695 404.362 267.253 413.587 261.488C422.811 255.723 427.039 261.968 428 265.812C417.911 260.047 329.991 355.173 328.549 355.173C296.84 350.85 257.925 391.206 259.366 392.648C247.836 392.648 243.031 378.234 242.07 371.028C234.864 339.319 263.69 309.051 270.896 309.051Z" fill="url(#paint0_linear)"/>
<path d="M236.305 345.084C238.611 325.482 254.562 311.934 262.249 307.61V301.845C257.925 306.169 213.244 283.108 201.714 278.784C190.183 274.46 188.742 277.343 191.624 285.991C194.507 294.638 201.714 290.314 203.155 294.638C204.596 298.962 213.244 300.404 201.714 298.962C190.183 297.521 155.592 255.723 149.826 252.84C144.061 249.957 142.62 252.84 142.62 255.723C142.62 258.605 146.944 258.605 148.385 264.371C149.538 268.983 147.905 268.214 146.944 267.253C145.022 265.812 139.449 261.776 132.531 257.164C125.612 252.552 121.961 259.086 121 262.929C133.972 257.164 187.3 324.906 206.038 337.878C224.775 350.849 234.864 345.084 236.305 345.084Z" fill="url(#paint1_linear)"/>
<path d="M564.207 188.044C551.427 83.1592 538.648 77.1081 500.309 33.4062C470.817 -0.210609 408.614 -2.56386 303.821 1.47016C172.829 6.51269 29.0577 95.5974 6.6933 169.555C-15.6712 243.512 14.2698 345.799 153.66 404.873C268.677 453.617 447.592 465.383 522.673 381.341L522.826 381.091C543.079 348.005 576.955 292.665 564.207 188.044Z" fill="#72D7F6" fill-opacity="0.23"/>
<defs>
<linearGradient id="paint0_linear" x1="274.5" y1="251.646" x2="274.5" y2="392.648" gradientUnits="userSpaceOnUse">
<stop offset="0.165629" stop-color="#5ED9FF"/>
<stop offset="1" stop-color="#004D65"/>
</linearGradient>
<linearGradient id="paint1_linear" x1="274.5" y1="251.646" x2="274.5" y2="392.648" gradientUnits="userSpaceOnUse">
<stop offset="0.165629" stop-color="#5ED9FF"/>
<stop offset="1" stop-color="#004D65"/>
</linearGradient>
</defs>
</svg>
