<svg width="851" height="542" viewBox="0 0 851 542" fill="none" xmlns="http://www.w3.org/2000/svg">
<path d="M587.089 18.5789L220.415 16.0003C212.796 15.9467 209.833 23.198 209.303 26.8303L179.144 266.638L214.065 269.733L217.24 266.638L535.236 295.003L534.178 298.097L579.152 303.254C581.692 301.604 581.974 300.16 581.798 299.644C587.441 211.973 598.729 35.2881 598.729 29.9246C598.729 24.5612 590.969 20.126 587.089 18.5789Z" fill="#2E2E2E"/>
<path d="M582.327 38.6918L221.473 32.5032L193.43 251.683L566.982 283.141L582.327 38.6918Z" fill="url(#paint0_linear)"/>
<path d="M211.949 272.827L217.24 266.638L535.236 295.003L531.003 301.707L211.949 272.827Z" fill="black"/>
<path d="M178.614 267.154L214.065 270.249L211.948 272.827L531.002 301.707L533.648 298.097L579.68 303.254C580.527 305.317 579.328 308.584 578.622 309.959C564.16 337.979 533.754 396.187 527.828 404.851C521.901 413.515 513.012 410.008 504.018 409.492L273.854 381.128C278.934 378.24 274.56 377.174 271.738 377.002L209.303 369.266C204.223 369.266 202.248 370.298 201.895 370.813C139.989 362.906 14.1667 346.884 6.12425 346.059C-1.91824 345.234 1.00951 341.246 3.47869 339.355C57.448 316.835 165.916 271.486 168.032 270.249C170.149 269.011 175.969 267.67 178.614 267.154Z" fill="#C4C4C4"/>
<path d="M0.83374 352.763V343.996C2.95018 345.646 4.89026 346.059 5.59574 346.059L201.367 370.813V377.002L273.326 386.284V381.643L511.426 410.007C522.431 411.658 527.299 406.569 528.357 403.819C545.113 372.532 578.835 309.546 579.681 307.896C580.528 306.245 580.034 304.114 579.681 303.254L580.21 304.286C581.48 305.936 581.092 312.193 580.739 315.116C566.277 343.136 536.294 401.343 532.061 410.007C527.828 418.671 516.541 419.806 511.426 419.29C348.812 398.662 21.9982 357.198 15.6488 356.373C9.29952 355.548 3.12655 353.622 0.83374 352.763Z" fill="#A5A1A1"/>
<path d="M200.838 376.784L205.133 369.41C205.624 368.567 208.559 368.708 209.965 368.883C228.041 371.166 265.697 375.941 271.71 376.784C277.723 377.627 277.437 378.54 276.542 378.891L273.321 381.525V386.265C273.321 386.686 224.999 380.12 200.838 376.784Z" fill="#898383"/>
<path d="M179.674 354.826L224.119 328.524C227.605 326.461 233.684 326.633 236.288 326.977C276.324 331.275 356.502 339.87 356.926 339.87C366.238 340.695 366.097 342.621 364.862 343.48C354.28 352.591 332.375 371.535 329.412 374.423C326.449 377.311 321.828 377.002 319.888 376.486L180.203 358.436C174.277 358.023 177.381 355.857 179.674 354.826Z" fill="#A8A6A6"/>
<path d="M201.367 370.813L206.129 369.266L201.367 375.97V370.813Z" fill="#959090"/>
<path d="M137.345 306.349C157.098 297.066 196.817 278.5 197.663 278.5C200.626 277.254 206.305 276.949 208.775 276.953L517.246 303.77C527.828 304.183 528.005 307.036 526.77 308.412C519.186 318.21 503.383 338.839 500.844 342.965C498.304 347.09 490.967 347.778 487.616 347.606C371.212 335.229 137.874 310.371 135.757 309.959C133.112 309.443 134.699 309.443 133.641 308.927C132.794 308.515 135.757 307.036 137.345 306.349Z" fill="#959090"/>
<path d="M440.463 96L335.301 92C319.911 92 317.859 102.543 316.833 104.5C312.729 122 307.292 148.6 304.009 155C299.905 163 308.625 168.5 307.087 174.5C306.266 177.7 292.039 191.167 284.515 197.5C286.396 197.5 292.928 196.3 304.009 191.5C315.089 186.7 320.937 182.167 322.989 178.5C349.151 181.167 405.785 182.8 418.918 184C432.05 185.2 437.727 178.167 440.463 174.5C442.173 161.333 451.646 125.7 453.288 112.5C454.929 99.3 445.593 96.1667 440.463 96Z" fill="#3A637E"/>
<path d="M348.558 109.274L361.679 110.918L357.305 129.465H374.801L379.904 110.918C384.002 111.387 390.872 111.994 393.554 111.679C393.973 111.027 394.291 110.75 394.483 110.918C394.95 111.328 394.528 111.564 393.554 111.679C390.16 116.955 380.177 146.75 377.366 162.5L364.541 160.163L370.184 140.977H355.118L348.558 160.163L335.436 160.437L348.558 109.274Z" fill="#D3EFF8"/>
<path d="M392.242 164L401.773 126.907H414.166L406.147 164H392.242Z" fill="#D3EFF8"/>
<path d="M403.96 121.791L406.147 114.756H416.353L414.166 123.709L403.96 121.791Z" fill="#D3EFF8"/>
<path d="M732.824 1.05811L727.715 2.09555L712.387 13.7149L714.09 332.21L715.368 378.48L730.269 386.364L757.943 383.874C781.927 381.315 830.109 376.114 830.96 375.782C831.812 375.45 835.005 374.399 836.495 373.915C836.85 372.601 837.346 369.89 836.495 369.558C835.431 369.143 737.081 378.48 735.804 378.48C734.782 378.48 728.566 367.137 725.586 361.466V21.807L735.165 8.3202L844.158 19.7321L836.069 11.64L732.824 1.05811Z" fill="black"/>
<path d="M832.663 11.8473L735.591 2.92529C725.884 2.92529 720.264 14.7521 720.264 19.5244C720.406 120.225 720.604 328.226 720.264 354.618C719.923 381.011 726.65 382.837 734.101 384.497C760.214 381.799 816.186 376.031 831.173 374.537C846.159 373.043 850.19 358.56 850.332 351.506C850.19 253.087 849.991 51.9756 850.332 34.8785C850.672 17.7815 838.695 12.4006 832.663 11.8473Z" fill="#2B2B2B"/>
<ellipse cx="752.834" cy="16.4122" rx="2.34165" ry="2.69735" fill="#656565"/>
<ellipse cx="823.296" cy="22.6367" rx="2.55453" ry="3.5273" fill="#656565"/>
<path d="M781.572 17.6572C782.211 17.6572 791.01 18.2105 795.622 18.4872C796.894 18.9004 797.322 21.371 796.064 21.8016C796.085 21.8052 796.081 21.807 796.048 21.807C796.054 21.8052 796.059 21.8034 796.064 21.8016C795.672 21.7354 786.318 21.0762 781.572 20.7696C781.147 20.5621 779.699 18.9852 781.572 17.6572Z" fill="#575757"/>
<path d="M834.153 10.6025C840.795 11.7645 844.584 16.6197 845.649 18.9021C842.072 13.5904 836.495 11.9858 834.153 11.8474C809.034 9.0809 754.707 3.17439 738.358 1.68047C722.009 0.186557 716.65 13.6107 716.645 21.8069C716.574 133.09 717.283 364.785 717.283 368.935C717.283 374.982 723.031 384.912 733.462 385.534C762.768 382.56 824.105 375.575 831.599 374.745C839.092 373.915 844.513 368.174 846.287 365.408C843.733 371.881 835.43 375.575 831.599 376.612C804.918 379.517 747.469 385.617 731.121 386.779C714.772 387.941 708.839 373.016 707.917 365.408C707.775 258.482 707.576 40.0659 707.917 21.8069C708.257 3.54791 726.792 -0.325208 736.017 0.0206064C765.961 3.06377 827.511 9.44058 834.153 10.6025Z" fill="#0292BE"/>
<ellipse cx="766.671" cy="17.8647" rx="1.70302" ry="2.07488" fill="#656565"/>
<ellipse cx="770.716" cy="18.072" rx="1.49014" ry="1.8674" fill="#656565"/>
<path d="M845.01 36.5384L727.076 25.749L726.65 361.465L845.01 349.846V36.5384Z" fill="url(#paint1_linear)"/>
<path d="M723.244 21.5993C723.414 11.3079 727.998 6.24517 730.269 5.00024C723.287 7.15812 721.683 16.7579 721.328 21.5993C721.399 134.058 720.988 361.424 721.328 368.728C721.669 376.031 725.089 379.655 726.863 380.554C724.138 377.733 723.315 369.834 723.244 366.238C723.173 255.646 723.074 31.8907 723.244 21.5993Z" fill="#525252"/>
<path d="M760.322 140.283L818.662 143.742C821.646 144.48 825.542 147.494 825.741 156.097C825.94 164.699 825.824 186.037 825.741 195.631C825.161 198.899 824.631 205.436 818.662 205.436C813.367 205.436 784.353 206.182 766.522 205.689C765.217 207.828 763.203 211.055 760.322 215.526C753.986 225.359 742.214 228.787 740.537 229.075C738.859 229.363 745.57 224.751 750.602 215.526C754.628 208.145 755.794 203.849 755.874 202.624C754.406 200.724 753.207 197.597 753.108 192.463C752.909 182.089 753.026 157.467 753.108 148.506C753.357 145.765 755.148 140.283 760.322 140.283Z" fill="#3A637E"/>
<path d="M770.929 196.478V153.65V151.902L778.646 153.65V167.635L787.328 169.383V155.398L793.598 156.272C793.759 169.674 793.984 196.712 793.598 197.644C793.212 198.576 789.257 197.255 787.328 196.478V174.045L778.646 173.171V196.478H770.929Z" fill="#D3EFF8"/>
<path d="M799.386 197.644V164.139L805.415 165.013V197.644H799.386Z" fill="#D3EFF8"/>
<path d="M799.386 161.517V157.146H804.691V162.973L799.386 161.517Z" fill="#D3EFF8"/>
<ellipse cx="609.748" cy="297" rx="195.448" ry="245" fill="url(#paint2_radial)"/>
<path d="M726.904 155.447C712.825 129.309 595.332 121.685 538.346 121.141C504.266 130.943 510.691 235.768 546.168 239.036L669.359 250.199L704.557 270.075L691.427 250.199C719.083 246.659 738.344 176.685 726.904 155.447Z" fill="#72D7F6" stroke="#0292BE" stroke-width="3"/>
<path d="M715.455 158.874C717.185 139.597 616.149 133.197 552.598 129.572C524.463 127.726 522.97 189.868 563.187 193.297L677.91 203.08C716.468 206.368 715.455 158.874 715.455 158.874Z" fill="white"/>
<path d="M677.91 203.08C716.468 206.368 715.455 158.874 715.455 158.874C717.185 139.597 616.149 133.197 552.598 129.572C524.463 127.726 522.97 189.868 563.187 193.297M677.91 203.08C646.73 200.421 579.372 194.677 563.187 193.297M677.91 203.08L563.187 193.297" stroke="#0292BE" stroke-width="3"/>
<ellipse rx="19.5505" ry="19.063" transform="matrix(0.996384 0.0849655 -0.0894015 0.995996 585.22 162.925)" fill="#0292BE"/>
<ellipse rx="8.3788" ry="8.16987" transform="matrix(0.996384 0.0849655 -0.0894015 0.995996 579.466 152.049)" fill="white"/>
<ellipse rx="19.5505" ry="19.063" transform="matrix(0.996384 0.0849655 -0.0894015 0.995996 665.317 170.302)" fill="#0292BE"/>
<ellipse rx="8.3788" ry="8.16987" transform="matrix(0.996384 0.0849655 -0.0894015 0.995996 657.942 158.74)" fill="white"/>
<path d="M600.864 210.449C612.133 217.15 641.379 227.679 668.208 216.192C655.54 231.328 624.335 251.371 600.864 210.449Z" fill="#0292BE" stroke="#0292BE"/>
<path d="M498.399 443.074C494.048 310.943 538.005 260.232 566.234 251.393L658.303 260.105C702.601 273.719 713.074 386.579 711.261 440.623L498.399 443.074Z" fill="#D3EFF8" stroke="#0292BE" stroke-width="3"/>
<path d="M504.265 276.986L533.673 273.991C514.4 302.17 505.755 332.349 504.265 341.788L485.549 322.729L489.46 312.382L468.585 313.744L445.12 367.382C455.624 369.778 453.221 385.079 448.193 391.342L443.165 389.708C444.003 387.802 452.663 373.646 440.93 370.377C426.687 367.432 429.942 380.995 428.639 386.441L423.611 385.079C422.493 365.476 433.946 363.933 439.813 365.476L463.836 296.863L500.075 285.427L504.265 276.986Z" fill="#0292BE"/>
<path d="M711.54 296.863L685.282 285.155C698.914 304.105 704.551 344.471 707.438 358.901L724.67 336.342L711.54 296.863Z" fill="#0292BE"/>
<path d="M500.075 285.427L504.265 276.986L533.673 273.991C514.4 302.17 505.755 332.349 504.265 341.788L485.549 322.729L489.46 312.382M500.075 285.427L463.836 296.863L439.813 365.476C433.946 363.933 422.493 365.476 423.611 385.079L428.639 386.441C429.942 380.995 426.687 367.432 440.93 370.377C452.663 373.646 444.003 387.802 443.165 389.708L448.193 391.342C453.221 385.079 455.624 369.778 445.12 367.382L468.585 313.744L489.46 312.382M500.075 285.427L489.46 312.382M685.282 285.155L711.54 296.863L724.67 336.342L707.438 358.901C704.551 344.471 698.914 304.105 685.282 285.155Z" stroke="#0292BE" stroke-width="3"/>
<path d="M754.839 314.288L714.975 301.354L723.35 329.107L745.621 331.169C751.208 349.865 762.437 386.495 762.661 386.713C745.621 390.253 757.167 404.438 759.309 410.401L765.734 409.584C763.964 405.137 751.487 392.313 767.13 390.253C781.377 388.376 777.28 403.231 777.466 407.406C779.328 407.043 782.494 405.772 782.494 405.772C782.941 391.614 783.053 383.446 768.527 385.352L754.839 314.288Z" fill="#0292BE" stroke="#0292BE" stroke-width="3"/>
<ellipse cx="609.3" cy="485.549" rx="119.281" ry="15.7919" fill="black" fill-opacity="0.33"/>
<path d="M669.751 267.887L569.074 259.833C511.876 291.889 507.059 432.546 507.059 440.623C557.901 440.287 711.261 439.302 711.261 439.806C711.261 314.105 675.935 267.887 669.751 267.887Z" fill="#72D7F6"/>
<defs>
<linearGradient id="paint0_linear" x1="387.878" y1="32.5032" x2="387.878" y2="283.141" gradientUnits="userSpaceOnUse">
<stop stop-color="#72D7F6"/>
<stop offset="1" stop-color="#BBDB9B"/>
</linearGradient>
<linearGradient id="paint1_linear" x1="785.83" y1="25.749" x2="785.83" y2="361.465" gradientUnits="userSpaceOnUse">
<stop stop-color="#72D7F6"/>
<stop offset="1" stop-color="#BBDB9B"/>
</linearGradient>
<radialGradient id="paint2_radial" cx="0" cy="0" r="1" gradientUnits="userSpaceOnUse" gradientTransform="translate(609.748 297) rotate(90) scale(245 195.448)">
<stop/>
<stop offset="1" stop-opacity="0"/>
</radialGradient>
</defs>
</svg>
