<svg width="433" height="488" viewBox="0 0 433 488" fill="none" xmlns="http://www.w3.org/2000/svg">
<path d="M91.3937 416.618C86.1984 254.747 138.685 192.622 172.393 181.793L282.329 192.467C335.225 209.145 347.73 347.407 345.565 413.616L91.3937 416.618Z" fill="#D3EFF8" stroke="#0292BE" stroke-width="3"/>
<path d="M98.3984 213.148L133.513 209.479C110.5 244 100.177 280.971 98.3984 292.535L76.05 269.186L80.7198 256.51L55.7939 258.178L27.775 323.889C40.3168 326.824 37.4482 345.57 31.4441 353.242L25.4401 351.241C26.4407 348.906 36.781 331.564 22.7716 327.558C5.76388 323.951 9.65161 340.567 8.095 347.238L2.09095 345.57C0.756725 321.554 14.4326 319.664 21.4373 321.554L50.1234 237.498L93.395 223.488L98.3984 213.148Z" fill="#0292BE"/>
<path d="M345.899 237.498L314.544 223.154C330.822 246.37 337.553 295.821 341 313.5L361.576 285.864L345.899 237.498Z" fill="#0292BE"/>
<path d="M93.395 223.488L98.3984 213.148L133.513 209.479C110.5 244 100.177 280.971 98.3984 292.535L76.05 269.186L80.7198 256.51M93.395 223.488L50.1234 237.498L21.4373 321.554C14.4326 319.664 0.756725 321.554 2.09095 345.57L8.095 347.238C9.65161 340.567 5.76388 323.951 22.7716 327.558C36.781 331.564 26.4407 348.906 25.4401 351.241L31.4441 353.242C37.4482 345.57 40.3168 326.824 27.775 323.889L55.7939 258.178L80.7198 256.51M93.395 223.488L80.7198 256.51M314.544 223.154L345.899 237.498L361.576 285.864L341 313.5C337.553 295.821 330.822 246.37 314.544 223.154Z" stroke="#0292BE" stroke-width="3"/>
<path d="M397.601 258.845L350 243L360 277L386.593 279.526C393.264 302.43 406.673 347.305 406.94 347.572C386.593 351.908 400.38 369.287 402.937 376.591L410.609 375.591C408.497 370.143 393.598 354.432 412.277 351.908C429.289 349.609 424.396 367.808 424.619 372.922C426.842 372.478 430.623 370.921 430.623 370.921C431.157 353.576 431.29 343.569 413.945 345.904L397.601 258.845Z" fill="#0292BE" stroke="#0292BE" stroke-width="3"/>
<ellipse cx="223.816" cy="468.653" rx="142.43" ry="19.3464" fill="black" fill-opacity="0.34"/>
<path d="M296 202L175.784 192.133C107.486 231.405 101.734 403.721 101.734 413.616C162.443 413.204 345.565 411.997 345.565 412.616C345.565 258.621 303.384 202 296 202Z" fill="#72D7F6"/>
<path d="M364.244 64.252C347.433 32.2304 207.138 22.8908 139.093 22.2237C98.3984 34.2318 106.07 162.652 148.432 166.655L295.531 180.33L337.56 204.68L321.883 180.33C354.905 175.994 377.904 90.2696 364.244 64.252Z" fill="#72D7F6" stroke="#0292BE" stroke-width="3"/>
<path d="M350.573 68.45C352.639 44.8344 231.995 36.9942 156.11 32.5524C122.515 30.2919 120.733 106.42 168.754 110.621L305.741 122.606C351.783 126.634 350.573 68.45 350.573 68.45Z" fill="white"/>
<path d="M305.741 122.606C351.783 126.634 350.573 68.45 350.573 68.45C352.639 44.8344 231.995 36.9942 156.11 32.5524C122.515 30.2919 120.733 106.42 168.754 110.621M305.741 122.606C268.51 119.349 188.08 112.312 168.754 110.621M305.741 122.606L168.754 110.621" stroke="#0292BE" stroke-width="3"/>
<circle cx="195.064" cy="73.4128" r="23.3491" transform="rotate(5 195.064 73.4128)" fill="#0292BE"/>
<circle cx="188.193" cy="60.0881" r="10.0068" transform="rotate(5 188.193 60.0881)" fill="white"/>
<circle cx="290.705" cy="82.4501" r="23.3491" transform="rotate(5 290.705 82.4501)" fill="#0292BE"/>
<circle cx="281.899" cy="68.2863" r="10.0068" transform="rotate(5 281.899 68.2863)" fill="white"/>
<path d="M213.743 131.634C227.2 139.842 262.121 152.742 294.157 138.669C279.03 157.212 241.769 181.766 213.743 131.634Z" fill="#0292BE" stroke="#0292BE"/>
</svg>
