<svg width="455" height="319" viewBox="0 0 455 319" fill="none" xmlns="http://www.w3.org/2000/svg">
<path d="M174.147 310.7C156.974 324.949 132.831 315.267 122.907 308.645C122.907 308.645 13.5102 230.516 7.71042 227.073C1.91066 223.631 0 214.505 0 212.319V202.465L130.523 298.712C146.034 307.755 163.529 300.882 170.338 296.315C259.662 223.016 439.763 75.2547 445.58 70.5965C451.396 65.9383 452.85 61.3486 452.85 59.636C458.39 68.1304 451.927 77.1043 448.003 80.5295C363.873 151.316 191.319 296.452 174.147 310.7Z" fill="black"/>
<path d="M131.543 299.754L11.0981 215.996L7.63701 213.227C-0.619223 208.52 -3.43846 196.614 5.56035 191.422L288.676 4.87051C299.198 -1.77475 316.595 -0.205734 323.979 1.40943L435.426 44.3267C456.469 53.1871 453.885 63.2473 449.962 67.1698L177.229 292.832C162.278 309.445 140.542 304.369 131.543 299.754Z" fill="#525151"/>
<path d="M149.541 284.665L24.7692 200.042C14.6629 195.196 20.5582 185.909 24.7692 181.871L284.523 11.2404C296.429 3.21066 307.481 4.43358 311.519 6.04874L429.195 53.1193C443.594 58.9339 440.732 66.6175 437.502 69.7325L179.825 284.665C167.227 293.11 154.386 288.184 149.541 284.665Z" fill="#72D7F6"/>
</svg>
