<svg width="679" height="453" viewBox="0 0 679 453" fill="none" xmlns="http://www.w3.org/2000/svg">
<path d="M266.147 381.7C248.974 395.949 224.831 386.267 214.907 379.645C214.907 379.645 105.51 301.516 99.7104 298.073C93.9107 294.631 92 285.505 92 283.319V273.465L222.523 369.712C238.034 378.755 255.529 371.882 262.338 367.315C351.662 294.016 531.763 146.255 537.58 141.597C543.396 136.938 544.85 132.349 544.85 130.636C550.39 139.13 543.927 148.104 540.003 151.529C455.873 222.316 283.319 367.452 266.147 381.7Z" fill="black"/>
<path d="M223.543 370.754L103.098 286.996L99.637 284.227C91.3808 279.52 88.5615 267.614 97.5604 262.422L380.676 75.8705C391.198 69.2252 408.595 70.7943 415.979 72.4094L527.426 115.327C548.469 124.187 545.885 134.247 541.962 138.17L269.229 363.832C254.278 380.445 232.542 375.369 223.543 370.754Z" fill="#525151"/>
<path d="M241.541 355.665L116.769 271.042C106.663 266.196 112.558 256.909 116.769 252.871L376.523 82.2404C388.429 74.2107 399.481 75.4336 403.519 77.0487L521.196 124.119C535.594 129.934 532.732 137.618 529.502 140.732L271.825 355.665C259.227 364.11 246.386 359.184 241.541 355.665Z" fill="url(#paint0_linear)"/>
<path d="M3.3446 192.289C18.6487 85.0363 33.9528 78.8487 79.865 34.1603C115.182 -0.215363 189.672 -2.62173 315.165 1.50335C472.032 6.65971 644.202 97.7554 670.985 173.382C697.767 249.008 661.911 353.605 494.988 414.012C357.251 463.857 142.994 475.888 53.0828 389.949L52.8997 389.693C28.6464 355.861 -11.921 299.271 3.3446 192.289Z" fill="#72D7F6" fill-opacity="0.23"/>
<defs>
<linearGradient id="paint0_linear" x1="437" y1="252" x2="253" y2="104" gradientUnits="userSpaceOnUse">
<stop stop-color="#B0EDFF"/>
<stop offset="1" stop-color="#02607C"/>
</linearGradient>
</defs>
</svg>
