<svg width="710" height="528" viewBox="0 0 710 528" fill="none" xmlns="http://www.w3.org/2000/svg">
<path d="M3.49669 223.749C19.4967 98.9494 35.4967 91.7493 83.4967 39.7494C120.42 -0.250599 198.297 -3.05068 329.497 1.74932C493.497 7.74932 673.497 113.749 701.497 201.749C729.497 289.749 692.011 411.459 517.497 481.749C373.497 539.749 149.497 553.749 55.4967 453.749L55.3052 453.452C29.9491 414.084 -12.4631 348.235 3.49669 223.749Z" fill="#72D7F6" fill-opacity="0.23"/>
<path d="M584.608 319.531L571.609 318.401L562.849 349.485L583.478 368.984L592.803 367.571L595.064 365.875L584.608 319.531Z" fill="black"/>
<path d="M200.291 461.107C179.041 464.724 162.048 441.514 156.208 429.457L250.026 424.936C250.026 426.443 248.783 431.718 243.809 440.761C237.593 452.064 226.854 456.586 200.291 461.107Z" fill="black"/>
<path d="M470.444 307.946L437.664 302.859L426.925 354.29L448.402 358.811C457.633 369.361 478.695 387.522 489.094 375.766C499.493 364.011 480.993 325.654 470.444 307.946Z" fill="black"/>
<path d="M405.449 453.276C398.021 451.559 381.631 425.133 374.364 412.135C377.728 399.852 387.444 382.083 399.393 409.273C411.343 436.462 432.9 449.937 442.185 453.276C435.726 456.854 414.734 455.423 405.449 453.276Z" fill="black"/>
<path d="M458.857 450.369C506.558 404.251 467.618 325.748 433.142 332.813L416.752 337.334L403.753 421.545C406.767 427.95 415.057 442.682 424.099 450.369C435.403 459.977 448.967 453.76 458.857 450.369Z" fill="#424242"/>
<path d="M451.228 428.044C484.234 409.281 461.118 357.398 442.75 358.811L433.99 360.506C428.338 368.984 418.561 392.552 425.795 411.089C433.029 429.627 445.764 430.117 451.228 428.044Z" fill="#999999"/>
<path d="M538.264 411.089C535.777 408.151 531.011 384.997 528.939 373.788L571.044 367.006C575.848 381.135 584.778 409.733 582.065 411.089C579.352 412.446 553.241 413.35 540.525 413.633C540.807 414.009 540.751 414.028 538.264 411.089Z" fill="black"/>
<path d="M582.913 411.09C576.357 411.09 571.703 382.737 569.914 368.419V331.965C570.95 330.647 573.7 328.8 576.413 331.965C579.804 335.922 585.601 342.692 588.282 369.832C590.542 392.721 586.115 406.191 582.913 411.09Z" fill="#494949"/>
<path d="M583.76 392.439C587.603 372.771 581.405 355.42 577.826 349.203C576.13 349.203 576.413 349.203 575.848 354.29C575.283 359.376 576.413 372.092 578.674 383.113C580.934 394.134 582.913 394.134 583.76 392.439Z" fill="#9E9E9E"/>
<path d="M101.951 89.5064C95.8474 93.3496 93.1911 101.469 92.6259 105.049C91.0434 110.163 90.0826 122.628 89.8 128.221L88.6697 129.351V135.568H92.0607L85.2786 249.168L82.1702 251.711V268.383L83.8657 342.704H81.605L78.4966 344.399L80.7573 372.092L86.409 373.223V388.2L81.605 393.569V419.284H86.409V421.545L369.56 410.807L389.341 407.133L396.688 422.958L438.229 413.633C437.098 398.279 434.838 364.689 434.838 353.159C434.838 338.747 438.229 326.031 441.337 318.684C443.824 312.806 446.329 311.713 447.271 311.902L458.857 312.749C470.839 318.627 477.602 361.919 479.486 382.831L572.174 369.832C569.914 324.053 573.87 322.922 574.435 322.075C575 321.227 576.131 320.944 580.087 322.075C583.252 322.979 589.506 352.971 592.238 367.854H599.02L601.281 381.418L612.019 378.027L611.454 373.788L612.867 364.745L620.497 360.224C614.468 317.365 602.242 230.686 601.563 226.843C600.885 223 596.383 218.083 594.216 216.105L348.084 56.7264C346.2 55.5961 341.019 52.3746 335.367 48.5315C328.303 43.7275 319.542 41.7494 313.891 41.7494C308.239 41.7494 268.96 44.2927 257.091 45.7056C247.596 46.8359 203.211 56.5381 182.206 61.2478C166.287 66.0518 132.244 76.451 123.428 79.6159C112.407 83.5721 109.581 84.7025 101.951 89.5064Z" fill="url(#paint0_linear)"/>
<path d="M129.08 88.0935V97.4188L129.645 104.766C129.456 107.498 131.058 113.074 138.97 113.526C148.861 114.091 282.806 86.398 287.61 84.4199C291.454 82.8374 293.921 75.8481 294.675 72.5513C294.769 68.7835 294.562 59.8914 292.979 54.4658C291.001 47.6837 287.893 47.9663 279.698 47.9663C252.287 46.8359 147.165 74.5294 138.122 77.6378C130.888 80.1246 129.08 85.6444 129.08 88.0935Z" fill="black"/>
<path d="M133.318 104.766L132.188 90.3542C132.188 83.5722 136.709 81.8839 140.666 80.4637C173.728 68.5951 244.092 56.1613 267.829 52.2051C286.819 49.0401 291.566 54.8426 291.566 58.1394C291.755 61.3421 292.019 69.1603 291.566 74.812C291.001 81.8766 283.372 82.5209 279.698 84.1373C277.155 85.2564 147.73 109.57 140.666 110.418C135.014 111.096 133.413 106.933 133.318 104.766Z" fill="#0292BE"/>
<path d="M352.322 370.68L88.387 388.2H85.2786C82.7918 388.2 81.7934 391.214 81.605 392.721V417.871C81.605 419.454 85.1844 419.284 86.9741 419.002L192.379 412.785C241.172 410.524 339.55 406.003 342.714 406.003C345.879 406.003 360.988 405.249 368.147 404.873C367.959 398.373 367.469 383.792 367.017 377.462C366.565 371.132 357.032 370.303 352.322 370.68Z" fill="#3A637E"/>
<path d="M84.9958 426.631L88.3869 424.936C88.3869 425.501 89.0086 426.631 91.4955 426.631C91.8859 426.631 95.8508 426.484 102.516 426.226C104.683 424.195 109.129 419.567 109.581 417.306L326.324 406.568C327.078 410.102 329.489 417.136 333.107 416.994C336.282 416.868 338.504 416.782 339.606 416.741C354.866 416.176 355.148 414.198 359.952 413.35C364.756 412.502 364.474 418.154 363.061 420.132C361.93 421.714 356.373 422.675 353.735 422.958C268.018 426.349 95.5647 433.187 91.4955 433.413C86.4089 433.696 84.9958 432.283 84.1481 430.305C83.4699 428.723 84.4306 427.197 84.9958 426.631Z" fill="#808080"/>
<path d="M102.516 426.226C95.8508 426.484 91.8859 426.631 91.4955 426.631C89.0086 426.631 88.3869 425.501 88.3869 424.936L84.9958 426.631C84.4306 427.197 83.4699 428.723 84.1481 430.305C84.9958 432.283 86.4089 433.696 91.4955 433.413C95.5647 433.187 268.018 426.349 353.735 422.958C356.373 422.675 361.93 421.714 363.061 420.132C364.474 418.154 364.756 412.502 359.952 413.35C355.148 414.198 354.866 416.176 339.606 416.741C338.504 416.782 336.282 416.868 333.107 416.994M102.516 426.226C104.683 424.195 109.129 419.567 109.581 417.306L326.324 406.568C327.078 410.102 329.489 417.136 333.107 416.994M102.516 426.226C145.092 424.576 297.853 418.387 333.107 416.994" stroke="#AFAFAF"/>
<path d="M81.3223 267.818V251.146C83.583 249.789 87.3508 249.262 88.9521 249.167C165.345 240.03 321.859 221.191 336.78 218.931C351.701 216.67 364.85 217.235 369.56 217.8L384.537 221.757C385.196 227.22 386.289 238.033 385.385 237.581C384.254 237.016 371.256 233.908 366.452 233.343C362.608 232.89 340.359 235.038 329.715 236.168C249.838 245.588 89.2912 264.54 86.1262 264.992C82.9613 265.444 81.6049 267.065 81.3223 267.818Z" fill="#3A637E"/>
<path d="M91.2129 378.874V346.377V333.943L150.839 329.422V375.483L91.2129 378.874Z" fill="#929292"/>
<path d="M280.263 365.593L278.567 318.684L349.779 311.619L352.322 361.637L280.263 365.593Z" fill="#929292"/>
<path d="M285.632 359.941L283.654 323.77V320.944L344.975 316.706L346.953 357.115L285.632 359.941Z" fill="#505050"/>
<path d="M145.187 335.356L95.7344 339.595V374.636L146.882 370.397L145.187 335.356Z" fill="#505050"/>
<path d="M103.082 365.876C94.7173 358.641 99.0315 348.355 102.234 344.117C106.19 340.443 114.385 338.747 120.037 345.247C124.558 350.446 121.921 358.905 120.037 362.485C117.87 366.629 111.446 373.11 103.082 365.876Z" fill="black"/>
<path d="M129.362 364.18C118.963 351.068 127.478 341.95 133.036 339.03C139.14 334.961 144.433 340.725 146.317 344.117V362.485C145.752 363.615 143.944 366.045 141.231 366.723C133.884 367.571 134.166 367.006 129.362 364.18Z" fill="black"/>
<path d="M287.045 339.312C287.723 328.461 296.559 324.43 300.892 323.77C304.412 322.64 308.387 324.995 309.935 326.314C312.855 328.574 318.073 335.356 315.586 344.399C313.1 353.442 304.754 355.514 300.892 355.42C295.994 354.572 286.367 350.164 287.045 339.312Z" fill="black"/>
<path d="M327.738 351.746C310.33 337.73 322.934 326.125 331.411 322.075C336.837 320.04 343.28 325.183 345.823 328.009L346.671 344.399C347.142 344.399 347.123 345.416 343.28 349.486C338.476 354.572 334.802 354.29 327.738 351.746Z" fill="black"/>
<path d="M105.06 366.158C93.9827 355.533 101.386 346.095 107.039 342.703C111.842 341.856 115.782 344.348 117.212 348.638C118.342 352.029 117.4 359.753 115.799 363.05C114.48 365.122 110.712 369.323 105.06 366.158Z" fill="#D5D5D5"/>
<path d="M130.492 363.332C119.415 352.933 128.326 343.74 134.166 340.443C137.105 339.765 139.724 341.291 140.666 342.138C141.608 342.986 143.774 346.038 144.904 351.464C146.035 356.889 142.173 361.072 140.1 362.485C138.499 363.615 134.336 365.367 130.492 363.332Z" fill="#D5D5D5"/>
<path d="M290.436 331.965C292.471 327.67 297.877 326.596 300.327 326.596C304.17 326.596 307.391 328.857 308.522 329.987C310.123 332.06 312.873 337.504 311.065 342.704C308.804 349.203 306.826 349.203 302.305 351.746C297.783 354.29 292.979 349.486 290.436 346.377C287.893 343.269 287.893 337.334 290.436 331.965Z" fill="#D5D5D5"/>
<path d="M321.803 343.551C318.864 339.482 321.52 332.813 323.216 329.987C326.324 326.314 326.89 324.901 331.976 324.336C337.063 323.77 339.296 325.716 342.997 329.987C346.671 334.226 343.845 342.704 341.302 346.377C338.758 350.051 333.107 351.746 329.433 350.899C325.759 350.051 325.477 348.638 321.803 343.551Z" fill="#D5D5D5"/>
<path d="M425.512 206.78L414.492 126.808C413.962 122.965 417.474 123.511 419.296 124.265C433.048 132.365 460.723 148.68 461.401 149.132C462.079 149.584 463.567 157.421 464.227 161.283C466.111 176.449 470.331 208.871 472.139 217.235C473.948 225.6 472.893 231.836 472.139 233.908C460.271 229.858 435.516 221.418 431.447 220.061C427.378 218.705 425.795 210.642 425.512 206.78Z" fill="#525252"/>
<path d="M467.9 172.304C466.318 163.714 466.299 157.421 466.487 155.349C466.543 152.636 470.278 154.219 472.139 155.349C480.051 160.153 496.554 170.27 499.267 172.304C501.98 174.339 502.47 176.92 502.376 177.956C505.296 197.737 511.136 238.203 511.136 241.82C511.136 245.437 510.194 246.719 509.723 246.907C500.868 243.987 482.538 237.977 480.051 237.299C477.565 236.621 476.378 231.553 476.095 229.104C474.023 213.75 469.483 180.895 467.9 172.304Z" fill="#525252"/>
<path d="M504.636 181.63C503.958 176.656 504.919 175.978 505.484 176.26C512.549 180.405 527.243 189.09 529.504 190.672C531.765 192.255 533.272 198.114 533.743 200.845L535.721 211.019C537.416 221.945 541.033 245.381 541.938 251.711C542.842 258.041 540.807 258.305 539.677 257.645C532.518 255.102 517.805 249.733 516.222 248.602C514.64 247.472 513.679 243.61 513.396 241.82C510.759 223.829 505.314 186.603 504.636 181.63Z" fill="#525252"/>
<path d="M543.633 252.559L534.308 194.911C533.979 192.876 536.62 194.063 537.981 194.911C543.633 198.208 555.276 205.141 556.632 206.497C557.989 207.854 558.516 211.207 558.61 212.714C560.871 226.843 565.562 256.289 566.24 261.036C566.918 265.784 565.392 266.217 564.545 265.84C559.081 263.956 547.815 260.075 546.459 259.623C545.103 259.171 544.01 254.725 543.633 252.559Z" fill="#525252"/>
<path d="M567.653 261.036L559.741 210.171C559.338 207.581 560.891 207.961 561.719 208.475C566.523 211.113 576.413 216.614 577.543 217.518C578.674 218.422 579.522 223.923 579.804 226.561C581.5 239.183 585.06 265.332 585.738 268.949C586.417 272.566 585.456 273.093 584.891 272.905C580.181 271.304 570.535 268.044 569.631 267.818C568.727 267.592 567.936 263.203 567.653 261.036Z" fill="#525252"/>
<path d="M597.89 272.057L590.825 228.539C590.348 225.6 592.133 225.996 593.086 226.561C594.687 227.503 598.229 229.613 599.585 230.517C600.942 231.421 601.092 232.966 600.998 233.625L603.259 247.472C604.107 253.124 605.972 265.727 606.65 270.927C607.328 276.126 606.367 277.426 605.802 277.426C604.012 277.049 600.263 276.239 599.585 276.013C598.907 275.787 598.172 273.282 597.89 272.057Z" fill="#525252"/>
<path d="M362.213 177.956L360.235 126.808L371.821 138.959L375.212 168.065C376.06 173.906 377.981 187.338 378.885 194.346C380.016 203.106 379.168 206.78 377.755 209.04C376.342 211.301 374.929 212.431 369.843 211.019C365.773 209.888 363.626 201.505 363.061 197.454L362.213 177.956Z" fill="#525252"/>
<path d="M222.333 228.539C214.42 228.765 212.819 216.388 213.007 210.171V126.808C213.007 117.087 222.992 112.396 227.985 111.266C255.49 106.744 314.795 97.0798 331.976 94.593C349.158 92.1063 352.699 100.339 352.322 104.766C354.018 130.293 357.409 184.568 357.409 197.454C357.409 210.34 348.366 215.069 343.845 215.822C306.638 219.967 230.245 228.313 222.333 228.539Z" fill="#525252"/>
<path d="M194.922 118.048L103.929 136.981C96.9213 138.439 93.2852 146.631 92.3431 150.545C91.4012 170.42 89.1783 213.844 87.8219 228.539C86.4655 243.233 96.2995 246.53 101.386 246.342C126.348 242.857 179.21 235.49 190.966 233.908C202.721 232.325 206.414 221.192 206.791 215.822C206.885 191.049 207.017 139.129 206.791 129.634C206.565 120.139 198.784 117.953 194.922 118.048Z" fill="#525252"/>
<path d="M384.537 202.541C384.311 199.602 381.24 180.028 379.733 170.609C378.132 158.081 374.816 131.386 374.364 124.83C373.912 118.274 376.248 116.823 377.472 116.917L386.798 122.004C392.073 124.83 403.357 130.99 406.296 133.025C409.97 135.568 410.818 134.438 412.796 138.394C414.774 142.35 424.947 259.058 426.36 274.6C427.49 287.034 431.917 368.513 433.99 407.698C423.628 409.865 402.227 413.802 399.514 412.22C396.801 410.637 395.935 395.735 395.84 388.482C394.993 364.274 393.354 314.219 393.58 307.663C393.806 301.107 390.471 262.92 388.776 244.646C387.457 231.835 384.763 205.48 384.537 202.541Z" fill="#333333"/>
<path d="M587.999 269.796L582.065 231.93C581.888 230.799 582.933 230.705 583.478 230.799C584.985 231.459 588.564 233.06 590.825 234.19C593.086 235.321 593.651 237.864 593.651 238.994L597.324 269.796L602.976 315.575L606.65 349.203L609.193 374.918L601.563 377.462L597.042 339.595L592.803 303.989L587.999 269.796Z" fill="#333333"/>
<path d="M88.1045 318.401V294.664C88.1045 285.169 94.133 280.158 97.1472 278.839L149.991 272.34V269.514L271.503 255.667V257.363C287.422 255.95 321.973 252.841 332.824 251.711C343.675 250.581 348.272 260.094 349.214 264.993C349.779 270.362 350.853 283.248 350.627 291.838C350.401 300.429 341.678 305.026 337.345 306.25C318.883 307.851 279.867 311.111 271.503 311.337C263.138 311.563 259.728 318.966 259.069 322.64C259.634 320.568 260.425 318.91 259.069 328.857C257.713 338.804 250.026 343.175 246.353 344.117C227.985 345.906 188.988 349.542 179.945 349.768C168.642 350.051 166.663 339.878 165.533 331.4C164.629 324.618 160.258 322.734 158.186 322.64L148.578 324.618C135.014 325.843 106.19 328.405 99.4079 328.857C92.6259 329.309 89.0464 322.075 88.1045 318.401Z" fill="black"/>
<defs>
<linearGradient id="paint0_linear" x1="78.214" y1="262.166" x2="590.26" y2="309.076" gradientUnits="userSpaceOnUse">
<stop offset="0.456653" stop-color="#72D7F6"/>
<stop offset="1" stop-color="#0292BE"/>
</linearGradient>
</defs>
</svg>
