<svg width="604" height="647" viewBox="0 0 604 647" fill="none" xmlns="http://www.w3.org/2000/svg">
<path d="M450.245 64.252C433.433 32.2304 293.139 22.8908 225.093 22.2237C184.399 34.2318 192.07 162.652 234.432 166.655L381.532 180.33L423.56 204.68L407.883 180.33C440.905 175.994 463.904 90.2696 450.245 64.252Z" fill="#72D7F6" stroke="#0292BE" stroke-width="3"/>
<path d="M436.573 68.45C438.639 44.8344 317.995 36.9942 242.11 32.5524C208.515 30.2919 206.733 106.42 254.754 110.621L391.741 122.606C437.783 126.634 436.573 68.45 436.573 68.45Z" fill="white"/>
<path d="M391.741 122.606C437.783 126.634 436.573 68.45 436.573 68.45C438.639 44.8344 317.995 36.9942 242.11 32.5524C208.515 30.2919 206.733 106.42 254.754 110.621M391.741 122.606C354.51 119.349 274.08 112.312 254.754 110.621M391.741 122.606L254.754 110.621" stroke="#0292BE" stroke-width="3"/>
<circle cx="281.064" cy="73.4128" r="23.3491" transform="rotate(5 281.064 73.4128)" fill="#0292BE"/>
<circle cx="274.194" cy="60.0881" r="10.0068" transform="rotate(5 274.194 60.0881)" fill="white"/>
<circle cx="376.705" cy="82.4501" r="23.3491" transform="rotate(5 376.705 82.4501)" fill="#0292BE"/>
<circle cx="367.899" cy="68.2863" r="10.0068" transform="rotate(5 367.899 68.2863)" fill="white"/>
<path d="M299.743 131.634C313.2 139.842 348.121 152.742 380.157 138.669C365.03 157.212 327.769 181.766 299.743 131.634Z" fill="#0292BE" stroke="#0292BE"/>
<path d="M177.394 416.618C172.198 254.747 224.685 192.622 258.393 181.793L368.329 192.467C421.225 209.145 433.73 347.407 431.565 413.616L177.394 416.618Z" fill="#D3EFF8" stroke="#0292BE" stroke-width="3"/>
<path d="M184.398 213.148L219.513 209.479C196.5 244 186.177 280.971 184.398 292.535L162.05 269.186L166.72 256.51L141.794 258.178L113.775 323.889C126.317 326.825 123.448 345.57 117.444 353.242L111.44 351.241C112.441 348.906 122.781 331.564 108.772 327.558C91.7639 323.951 95.6516 340.567 94.095 347.238L88.0909 345.57C86.7567 321.554 100.433 319.664 107.437 321.554L136.123 237.498L179.395 223.488L184.398 213.148Z" fill="#0292BE"/>
<path d="M431.899 237.498L400.544 223.155C416.822 246.37 423.553 295.821 427 313.5L447.576 285.864L431.899 237.498Z" fill="#0292BE"/>
<path d="M179.395 223.488L184.398 213.148L219.513 209.479C196.5 244 186.177 280.971 184.398 292.535L162.05 269.186L166.72 256.51M179.395 223.488L136.123 237.498L107.437 321.554C100.433 319.664 86.7567 321.554 88.0909 345.57L94.095 347.238C95.6516 340.567 91.7639 323.951 108.772 327.558C122.781 331.564 112.441 348.906 111.44 351.241L117.444 353.242C123.448 345.57 126.317 326.825 113.775 323.889L141.794 258.178L166.72 256.51M179.395 223.488L166.72 256.51M400.544 223.155L431.899 237.498L447.576 285.864L427 313.5C423.553 295.821 416.822 246.37 400.544 223.155Z" stroke="#0292BE" stroke-width="3"/>
<path d="M483.601 258.845L436 243L446 277L472.593 279.526C479.264 302.43 492.673 347.305 492.94 347.572C472.593 351.908 486.38 369.287 488.937 376.591L496.609 375.591C494.497 370.143 479.598 354.432 498.277 351.908C515.289 349.609 510.396 367.808 510.619 372.922C512.842 372.478 516.623 370.921 516.623 370.921C517.157 353.576 517.29 343.569 499.945 345.904L483.601 258.845Z" fill="#0292BE" stroke="#0292BE" stroke-width="3"/>
<ellipse cx="309.816" cy="468.653" rx="142.43" ry="19.3464" fill="black" fill-opacity="0.34"/>
<path d="M382 202L261.784 192.133C193.486 231.405 187.734 403.721 187.734 413.616C248.443 413.204 431.565 411.997 431.565 412.616C431.565 258.621 389.384 202 382 202Z" fill="#72D7F6"/>
<path d="M128.88 515.24L90.6 599H70.8L65.64 539.36L38.76 599L19.08 599.12L11.28 515.24H29.28L32.64 580.28L61.08 515.24H79.8L84.36 579.92L110.76 515.24H128.88ZM146.69 524.6C144.05 524.6 141.93 523.84 140.33 522.32C138.73 520.8 137.93 518.88 137.93 516.56C137.93 513.36 139.13 510.64 141.53 508.4C144.01 506.08 146.89 504.92 150.17 504.92C152.73 504.92 154.81 505.68 156.41 507.2C158.01 508.72 158.81 510.64 158.81 512.96C158.81 516.16 157.61 518.92 155.21 521.24C152.81 523.48 149.97 524.6 146.69 524.6ZM153.65 532.52L141.89 599H124.97L136.73 532.52H153.65ZM207.088 531.56C213.968 531.56 219.368 533.44 223.288 537.2C227.288 540.88 229.288 546.16 229.288 553.04C229.288 555.6 229.088 557.92 228.688 560L221.728 599H205.048L211.528 562.28C211.768 560.84 211.888 559.44 211.888 558.08C211.888 554.08 210.808 551.04 208.648 548.96C206.568 546.88 203.568 545.84 199.648 545.84C195.168 545.84 191.328 547.2 188.128 549.92C185.008 552.56 182.928 556.4 181.888 561.44L175.288 599H158.368L170.128 532.52H187.048L185.608 540.68C188.328 537.88 191.568 535.68 195.328 534.08C199.088 532.4 203.008 531.56 207.088 531.56ZM275.744 531.44C280.704 531.44 284.904 532.44 288.344 534.44C291.864 536.36 294.344 538.88 295.784 542L297.464 532.52H314.384L302.624 599.48C301.504 605.64 299.264 611.12 295.904 615.92C292.544 620.8 288.144 624.64 282.704 627.44C277.264 630.32 271.024 631.76 263.984 631.76C254.624 631.76 247.304 629.56 242.024 625.16C236.824 620.76 234.464 614.76 234.944 607.16H251.624C251.944 610.2 253.384 612.6 255.944 614.36C258.584 616.2 261.984 617.12 266.144 617.12C271.104 617.12 275.304 615.64 278.744 612.68C282.264 609.8 284.584 605.4 285.704 599.48L287.504 589.16C284.784 592.28 281.344 594.88 277.184 596.96C273.104 599.04 268.624 600.08 263.744 600.08C258.864 600.08 254.504 599 250.664 596.84C246.904 594.6 243.944 591.48 241.784 587.48C239.704 583.4 238.664 578.68 238.664 573.32C238.664 570.84 238.904 568.24 239.384 565.52C240.584 558.8 242.944 552.84 246.464 547.64C250.064 542.44 254.424 538.44 259.544 535.64C264.664 532.84 270.064 531.44 275.744 531.44ZM291.584 565.76C291.904 563.68 292.064 562.16 292.064 561.2C292.064 556.48 290.664 552.8 287.864 550.16C285.144 547.52 281.704 546.2 277.544 546.2C274.424 546.2 271.384 546.96 268.424 548.48C265.544 550 263.024 552.24 260.864 555.2C258.704 558.08 257.264 561.52 256.544 565.52C256.304 567.04 256.184 568.48 256.184 569.84C256.184 574.64 257.544 578.44 260.264 581.24C262.984 583.96 266.424 585.32 270.584 585.32C273.704 585.32 276.744 584.56 279.704 583.04C282.664 581.44 285.184 579.16 287.264 576.2C289.424 573.24 290.864 569.76 291.584 565.76ZM413.592 531.56C420.632 531.56 426.192 533.44 430.272 537.2C434.352 540.96 436.392 546.28 436.392 553.16C436.392 555.72 436.192 558 435.792 560L428.832 599H412.152L418.632 562.28C418.872 560.84 418.992 559.44 418.992 558.08C418.992 554.24 417.912 551.32 415.752 549.32C413.672 547.24 410.672 546.2 406.752 546.2C402.112 546.2 398.192 547.6 394.992 550.4C391.792 553.12 389.792 557.08 388.992 562.28V562.16L382.392 599H365.712L372.192 562.28C372.432 560.84 372.552 559.48 372.552 558.2C372.552 554.28 371.472 551.32 369.312 549.32C367.152 547.24 364.112 546.2 360.192 546.2C355.792 546.2 351.992 547.52 348.792 550.16C345.672 552.72 343.632 556.4 342.672 561.2L335.952 599H319.032L330.792 532.52H347.712L346.272 540.44C348.912 537.72 352.072 535.56 355.752 533.96C359.432 532.36 363.312 531.56 367.392 531.56C372.592 531.56 377.032 532.68 380.712 534.92C384.392 537.08 386.992 540.2 388.512 544.28C391.312 540.44 394.952 537.36 399.432 535.04C403.992 532.72 408.712 531.56 413.592 531.56ZM446.454 565.52C447.654 558.8 450.014 552.84 453.534 547.64C457.134 542.44 461.494 538.44 466.614 535.64C471.734 532.84 477.134 531.44 482.814 531.44C487.774 531.44 491.934 532.44 495.294 534.44C498.734 536.44 501.254 538.96 502.854 542L504.534 532.52H521.454L509.694 599H492.774L494.574 589.28C491.934 592.4 488.494 595 484.254 597.08C480.094 599.08 475.534 600.08 470.574 600.08C465.694 600.08 461.374 599 457.614 596.84C453.854 594.6 450.934 591.48 448.854 587.48C446.774 583.4 445.734 578.68 445.734 573.32C445.734 570.84 445.974 568.24 446.454 565.52ZM498.654 565.76C498.974 563.68 499.134 562.16 499.134 561.2C499.134 556.48 497.734 552.8 494.934 550.16C492.214 547.52 488.774 546.2 484.614 546.2C481.494 546.2 478.454 546.96 475.494 548.48C472.614 550 470.094 552.24 467.934 555.2C465.774 558.08 464.334 561.52 463.614 565.52C463.374 567.04 463.254 568.48 463.254 569.84C463.254 574.64 464.614 578.44 467.334 581.24C470.054 583.96 473.494 585.32 477.654 585.32C480.774 585.32 483.814 584.56 486.774 583.04C489.734 581.44 492.254 579.16 494.334 576.2C496.494 573.24 497.934 569.76 498.654 565.76ZM574.823 531.56C581.703 531.56 587.103 533.44 591.023 537.2C595.023 540.88 597.023 546.16 597.023 553.04C597.023 555.6 596.823 557.92 596.423 560L589.463 599H572.783L579.263 562.28C579.503 560.84 579.623 559.44 579.623 558.08C579.623 554.08 578.543 551.04 576.383 548.96C574.303 546.88 571.303 545.84 567.383 545.84C562.903 545.84 559.063 547.2 555.863 549.92C552.743 552.56 550.663 556.4 549.623 561.44L543.023 599H526.103L537.863 532.52H554.783L553.343 540.68C556.063 537.88 559.303 535.68 563.063 534.08C566.823 532.4 570.743 531.56 574.823 531.56Z" fill="white"/>
</svg>
